<svg width="71" height="71" viewBox="0 0 71 71" fill="none" xmlns="http://www.w3.org/2000/svg">
<circle cx="35.4682" cy="35.8296" r="34.3238" fill="white" stroke="#8BC34A" stroke-width="1.35249"/>
<path d="M35.5972 57C32.7534 57 30.0327 56.4463 27.4351 55.3389C24.8374 54.2314 22.6021 52.7412 20.729 50.8682C18.856 48.9951 17.3657 46.7598 16.2583 44.1621C15.1509 41.5645 14.5972 38.8438 14.5972 36C14.5972 33.1562 15.1509 30.4355 16.2583 27.8379C17.3657 25.2402 18.856 23.0049 20.729 21.1318C22.6021 19.2588 24.8374 17.7686 27.4351 16.6611C30.0327 15.5537 32.7534 15 35.5972 15C38.4409 15 41.1616 15.5537 43.7593 16.6611C46.3569 17.7686 48.5923 19.2588 50.4653 21.1318C52.3384 23.0049 53.8286 25.2402 54.936 27.8379C56.0435 30.4355 56.5972 33.1562 56.5972 36C56.5972 38.8438 56.0435 41.5645 54.936 44.1621C53.8286 46.7598 52.3384 48.9951 50.4653 50.8682C48.5923 52.7412 46.3569 54.2314 43.7593 55.3389C41.1616 56.4463 38.4409 57 35.5972 57ZM22.5952 22.998L35.5972 36V17.625C33.1089 17.625 30.7437 18.0967 28.5015 19.04C26.2593 19.9834 24.2905 21.3027 22.5952 22.998Z" fill="#3FAF38"/>
</svg>
