<svg width="71" height="71" viewBox="0 0 71 71" fill="none" xmlns="http://www.w3.org/2000/svg">
<circle cx="35.4684" cy="35.8296" r="34.325" fill="white" stroke="#8BC34A" stroke-width="1.35"/>
<path d="M27.9135 56C19.3084 51.1502 17.0428 46.5597 18.3381 40.2902C19.2943 35.6607 22.4255 31.8942 22.7257 27.2736C24.0632 29.7076 24.6221 31.4628 24.7716 34.0063C29.0256 28.7943 31.8367 21.5791 32.0031 14C32.0031 14 43.0833 20.5104 43.8103 30.3443C44.7642 28.3173 45.2444 25.0981 44.2905 23.0117C47.152 25.0982 63.9007 43.621 42.0219 56C46.1353 47.9907 43.0831 37.1836 35.941 32.1924C36.418 34.3385 35.5817 42.3431 32.422 45.8604C33.2975 39.9833 31.589 37.4983 31.589 37.4983C31.589 37.4983 31.0026 40.7902 28.7275 44.1155C26.6499 47.1522 25.2103 50.3752 27.9135 56Z" fill="#3FAF38"/>
</svg>
