<svg width="26" height="28" viewBox="0 0 26 28" fill="none" xmlns="http://www.w3.org/2000/svg">
<rect x="0.697754" y="0.653809" width="25.2188" height="26.4596" rx="6.6149" fill="url(#paint0_linear)"/>
<path d="M13.3051 8.79265C10.6199 8.79265 8.45277 11.0664 8.45277 13.8838C8.45277 16.7011 10.6199 18.9749 13.3051 18.9749C15.9904 18.9749 18.1575 16.7011 18.1575 13.8838C18.1575 11.0664 15.9904 8.79265 13.3051 8.79265ZM13.3051 17.1926C11.5686 17.1926 10.1515 15.7058 10.1515 13.8838C10.1515 12.0618 11.5686 10.5749 13.3051 10.5749C15.0417 10.5749 16.4588 12.0618 16.4588 13.8838C16.4588 15.7058 15.0417 17.1926 13.3051 17.1926ZM18.3563 7.39762C17.7293 7.39762 17.223 7.92882 17.223 8.58662C17.223 9.24442 17.7293 9.77563 18.3563 9.77563C18.9832 9.77563 19.4895 9.2469 19.4895 8.58662C19.4897 8.43042 19.4605 8.27572 19.4036 8.13138C19.3467 7.98703 19.2633 7.85588 19.158 7.74543C19.0527 7.63498 18.9277 7.54741 18.7902 7.48773C18.6526 7.42804 18.5051 7.39742 18.3563 7.39762ZM22.7639 13.8838C22.7639 12.5136 22.7757 11.1558 22.7023 9.78804C22.629 8.19939 22.2836 6.78946 21.1764 5.62776C20.0668 4.46358 18.7253 4.10365 17.2112 4.0267C15.9052 3.94975 14.6111 3.96216 13.3075 3.96216C12.0016 3.96216 10.7074 3.94975 9.40384 4.0267C7.88969 4.10365 6.54588 4.46606 5.43866 5.62776C4.32907 6.79195 3.98602 8.19939 3.91268 9.78804C3.83934 11.1582 3.85117 12.516 3.85117 13.8838C3.85117 15.2515 3.83934 16.6118 3.91268 17.9795C3.98602 19.5682 4.33144 20.9781 5.43866 22.1398C6.54825 23.304 7.88969 23.6639 9.40384 23.7408C10.7098 23.8178 12.0039 23.8054 13.3075 23.8054C14.6135 23.8054 15.9076 23.8178 17.2112 23.7408C18.7253 23.6639 20.0691 23.3015 21.1764 22.1398C22.286 20.9756 22.629 19.5682 22.7023 17.9795C22.7781 16.6118 22.7639 15.254 22.7639 13.8838ZM20.6819 19.737C20.5092 20.1887 20.301 20.5263 19.9674 20.8738C19.6338 21.2238 19.3144 21.4423 18.8838 21.6235C17.6394 22.1423 14.6844 22.0256 13.3051 22.0256C11.9258 22.0256 8.96852 22.1423 7.72408 21.626C7.2935 21.4447 6.97174 21.2263 6.64052 20.8763C6.30693 20.5263 6.09874 20.1912 5.92603 19.7394C5.43393 18.4313 5.54512 15.3309 5.54512 13.8838C5.54512 12.4366 5.43393 9.33378 5.92603 8.02811C6.09874 7.57634 6.30693 7.23875 6.64052 6.89124C6.9741 6.54372 7.2935 6.3228 7.72408 6.14159C8.96852 5.62528 11.9258 5.74195 13.3051 5.74195C14.6844 5.74195 17.6418 5.62528 18.8862 6.14159C19.3168 6.3228 19.6386 6.54124 19.9698 6.89124C20.3034 7.24124 20.5116 7.57634 20.6843 8.02811C21.1764 9.33378 21.0652 12.4366 21.0652 13.8838C21.0652 15.3309 21.1764 18.4313 20.6819 19.737Z" fill="white"/>
<defs>
<linearGradient id="paint0_linear" x1="13.3072" y1="0.653809" x2="13.3072" y2="27.1134" gradientUnits="userSpaceOnUse">
<stop stop-color="#565AD2"/>
<stop offset="0.260417" stop-color="#8D36A5"/>
<stop offset="0.46875" stop-color="#AA3785"/>
<stop offset="0.723958" stop-color="#E35954"/>
<stop offset="1" stop-color="#F9C56E"/>
</linearGradient>
</defs>
</svg>
