<svg width="288" height="64" viewBox="0 0 288 64" fill="none" xmlns="http://www.w3.org/2000/svg">
<path d="M88.4181 49V22.0135H113.156V26.0615H92.5035V33.4453H109.108V37.5308H92.5035V44.952H113.156V49H88.4181ZM121.725 49C120.376 49 119.226 48.5252 118.277 47.5757C117.327 46.6262 116.852 45.4768 116.852 44.1274V32.1335C116.852 30.7841 117.327 29.6347 118.277 28.6852C119.226 27.7357 120.376 27.2609 121.725 27.2609H138.891V31.3089H122.287C121.737 31.3089 121.363 31.4088 121.163 31.6087C120.988 31.7836 120.9 32.146 120.9 32.6957V43.5652C120.9 44.115 120.988 44.4898 121.163 44.6897C121.363 44.8646 121.737 44.952 122.287 44.952H138.966V49H121.725ZM147.64 49C146.29 49 145.141 48.5252 144.191 47.5757C143.242 46.6262 142.767 45.4768 142.767 44.1274V32.1335C142.767 30.7841 143.242 29.6347 144.191 28.6852C145.141 27.7357 146.29 27.2609 147.64 27.2609H160.008C161.358 27.2609 162.507 27.7357 163.457 28.6852C164.406 29.6347 164.881 30.7841 164.881 32.1335V44.1274C164.881 45.4768 164.406 46.6262 163.457 47.5757C162.507 48.5252 161.358 49 160.008 49H147.64ZM148.202 44.952H159.446C159.996 44.952 160.358 44.8646 160.533 44.6897C160.708 44.4898 160.795 44.115 160.795 43.5652V32.6957C160.795 32.146 160.708 31.7836 160.533 31.6087C160.358 31.4088 159.996 31.3089 159.446 31.3089H148.202C147.652 31.3089 147.277 31.4088 147.077 31.6087C146.902 31.7836 146.815 32.146 146.815 32.6957V43.5652C146.815 44.115 146.902 44.4898 147.077 44.6897C147.277 44.8646 147.652 44.952 148.202 44.952Z" fill="white"/>
<path d="M179.026 49V26.0615H167.556V22.0135H194.543V26.0615H183.111V49H179.026ZM202.031 49C200.682 49 199.532 48.5252 198.583 47.5757C197.633 46.6262 197.159 45.4768 197.159 44.1274V32.1335C197.159 30.7841 197.633 29.6347 198.583 28.6852C199.532 27.7357 200.682 27.2609 202.031 27.2609H214.4C215.749 27.2609 216.899 27.7357 217.848 28.6852C218.798 29.6347 219.273 30.7841 219.273 32.1335V40.1544H201.207V43.5652C201.207 44.115 201.294 44.4898 201.469 44.6897C201.669 44.8646 202.044 44.952 202.593 44.952H219.273V49H202.031ZM201.207 36.3688H215.187V32.6957C215.187 32.146 215.1 31.7836 214.925 31.6087C214.75 31.4088 214.388 31.3089 213.838 31.3089H202.593C202.044 31.3089 201.669 31.4088 201.469 31.6087C201.294 31.7836 201.207 32.146 201.207 32.6957V36.3688ZM223.222 57.6207V27.2609H240.464C241.813 27.2609 242.963 27.7357 243.912 28.6852C244.862 29.6347 245.336 30.7841 245.336 32.1335V44.1274C245.336 45.4768 244.862 46.6262 243.912 47.5757C242.963 48.5252 241.813 49 240.464 49H227.27V57.6207H223.222ZM228.657 44.952H239.902C240.451 44.952 240.814 44.8646 240.989 44.6897C241.188 44.4898 241.288 44.115 241.288 43.5652V32.6957C241.288 32.146 241.188 31.7836 240.989 31.6087C240.814 31.4088 240.451 31.3089 239.902 31.3089H228.657C228.107 31.3089 227.733 31.4088 227.533 31.6087C227.358 31.7836 227.27 32.146 227.27 32.6957V43.5652C227.27 44.115 227.358 44.4898 227.533 44.6897C227.733 44.8646 228.107 44.952 228.657 44.952ZM252.91 49C251.561 49 250.411 48.5252 249.462 47.5757C248.512 46.6262 248.037 45.4768 248.037 44.1274V20.1395H252.085V43.5652C252.085 44.115 252.173 44.4898 252.348 44.6897C252.548 44.8646 252.922 44.952 253.472 44.952H256.958V49H252.91ZM264.585 49C263.236 49 262.087 48.5252 261.137 47.5757C260.187 46.6262 259.713 45.4768 259.713 44.1274V32.1335C259.713 30.7841 260.187 29.6347 261.137 28.6852C262.087 27.7357 263.236 27.2609 264.585 27.2609H276.954C278.303 27.2609 279.453 27.7357 280.402 28.6852C281.352 29.6347 281.827 30.7841 281.827 32.1335V44.1274C281.827 45.4768 281.352 46.6262 280.402 47.5757C279.453 48.5252 278.303 49 276.954 49H264.585ZM265.148 44.952H276.392C276.942 44.952 277.304 44.8646 277.479 44.6897C277.654 44.4898 277.741 44.115 277.741 43.5652V32.6957C277.741 32.146 277.654 31.7836 277.479 31.6087C277.304 31.4088 276.942 31.3089 276.392 31.3089H265.148C264.598 31.3089 264.223 31.4088 264.023 31.6087C263.848 31.7836 263.761 32.146 263.761 32.6957V43.5652C263.761 44.115 263.848 44.4898 264.023 44.6897C264.223 44.8646 264.598 44.952 265.148 44.952Z" fill="#32CC28"/>
<ellipse cx="31.0241" cy="31.781" rx="30.2999" ry="31.6248" fill="#3FAF38"/>
</svg>
