<svg width="73" height="73" viewBox="0 0 73 73" fill="none" xmlns="http://www.w3.org/2000/svg">
<path d="M53.4497 67.2444L53.7678 67.0743L54.1199 67.1526L71.6848 71.0566L67.7808 53.4917L67.7025 53.1396L67.8726 52.8215C70.5865 47.7452 72.0023 42.0762 71.9936 36.3199V36.3185C71.9936 16.962 56.3031 1.2715 36.9466 1.2715C17.5902 1.2715 1.89969 16.962 1.89969 36.3185C1.89969 55.6749 17.5902 71.3654 36.9466 71.3654H36.9481C42.7044 71.3741 48.3734 69.9583 53.4497 67.2444ZM50.9719 62.6106L50.9708 62.6111C46.6559 64.9171 41.837 66.1186 36.9446 66.1084C31.0534 66.108 25.2946 64.3608 20.3963 61.0879C15.4973 57.8145 11.6791 53.162 9.42435 47.7186C7.16962 42.2752 6.57968 36.2854 7.72913 30.5067C8.87859 24.7281 11.7158 19.42 15.882 15.2538C20.0482 11.0876 25.3562 8.2504 31.1349 7.10095C36.9136 5.9515 42.9034 6.54144 48.3467 8.79617C53.7901 11.0509 58.4427 14.8691 61.716 19.7681C64.9894 24.667 66.7366 30.4266 66.7366 36.3185C66.7366 41.2832 65.5266 46.066 63.2355 50.343C63.2354 50.3431 63.2353 50.3433 63.2352 50.3435L62.1486 52.3767L64.4297 62.6399L64.7616 64.1334L63.2681 63.8015L53.0056 61.5205L50.9719 62.6106Z" fill="#40AD2E" stroke="white" stroke-width="1.94705"/>
<ellipse cx="36.9472" cy="36.0753" rx="24.8249" ry="23.608" fill="#2CB724"/>
<mask id="path-3-inside-1" fill="white">
<path fill-rule="evenodd" clip-rule="evenodd" d="M36.9548 23.1758C37.328 23.1758 37.6859 23.324 37.9497 23.5879C38.2136 23.8518 38.3619 24.2097 38.3619 24.5828V35.8392C38.3619 36.2124 38.2136 36.5703 37.9497 36.8342C37.6859 37.098 37.328 37.2463 36.9548 37.2463H25.6984C25.3252 37.2463 24.9673 37.098 24.7035 36.8342C24.4396 36.5703 24.2914 36.2124 24.2914 35.8392C24.2914 35.4661 24.4396 35.1082 24.7035 34.8443C24.9673 34.5804 25.3252 34.4322 25.6984 34.4322H35.5478V24.5828C35.5478 24.2097 35.696 23.8518 35.9599 23.5879C36.2237 23.324 36.5816 23.1758 36.9548 23.1758Z"/>
</mask>
<path d="M35.5478 34.4322V37.3528H38.4683V34.4322H35.5478ZM36.9548 26.0964C36.5534 26.0964 36.1684 25.9369 35.8846 25.6531L40.0149 21.5227C39.2033 20.7111 38.1026 20.2552 36.9548 20.2552V26.0964ZM35.8846 25.6531C35.6007 25.3692 35.4413 24.9842 35.4413 24.5828H41.2824C41.2824 23.4351 40.8265 22.3343 40.0149 21.5227L35.8846 25.6531ZM35.4413 24.5828V35.8392H41.2824V24.5828H35.4413ZM35.4413 35.8392C35.4413 35.4378 35.6007 35.0529 35.8846 34.769L40.0149 38.8993C40.8265 38.0877 41.2824 36.987 41.2824 35.8392H35.4413ZM35.8846 34.769C36.1684 34.4852 36.5534 34.3257 36.9548 34.3257V40.1669C38.1026 40.1669 39.2033 39.7109 40.0149 38.8993L35.8846 34.769ZM36.9548 34.3257H25.6984V40.1669H36.9548V34.3257ZM25.6984 34.3257C26.0998 34.3257 26.4848 34.4852 26.7686 34.769L22.6383 38.8993C23.4499 39.7109 24.5506 40.1669 25.6984 40.1669V34.3257ZM26.7686 34.769C27.0525 35.0529 27.2119 35.4378 27.2119 35.8392H21.3708C21.3708 36.987 21.8267 38.0877 22.6383 38.8993L26.7686 34.769ZM27.2119 35.8392C27.2119 36.2407 27.0525 36.6256 26.7686 36.9095L22.6383 32.7791C21.8267 33.5907 21.3708 34.6915 21.3708 35.8392H27.2119ZM26.7686 36.9095C26.4848 37.1933 26.0998 37.3528 25.6984 37.3528V31.5116C24.5506 31.5116 23.4499 31.9676 22.6383 32.7791L26.7686 36.9095ZM25.6984 37.3528H35.5478V31.5116H25.6984V37.3528ZM38.4683 34.4322V24.5828H32.6272V34.4322H38.4683ZM38.4683 24.5828C38.4683 24.9842 38.3089 25.3692 38.025 25.6531L33.8947 21.5227C33.0831 22.3343 32.6272 23.4351 32.6272 24.5828H38.4683ZM38.025 25.6531C37.7412 25.9369 37.3562 26.0964 36.9548 26.0964V20.2552C35.807 20.2552 34.7063 20.7111 33.8947 21.5227L38.025 25.6531Z" fill="white" mask="url(#path-3-inside-1)"/>
<mask id="path-5-inside-2" fill="white">
<path fill-rule="evenodd" clip-rule="evenodd" d="M35.5481 35.8389C35.5481 35.4658 35.6963 35.1079 35.9602 34.844C36.2241 34.5801 36.5819 34.4319 36.9551 34.4319H48.2115C48.5847 34.4319 48.9426 34.5801 49.2065 34.844C49.4703 35.1079 49.6186 35.4658 49.6186 35.8389C49.6186 36.2121 49.4703 36.57 49.2065 36.8339C48.9426 37.0977 48.5847 37.246 48.2115 37.246H38.3622V47.0953C38.3622 47.4685 38.2139 47.8264 37.9501 48.0903C37.6862 48.3542 37.3283 48.5024 36.9551 48.5024C36.5819 48.5024 36.2241 48.3542 35.9602 48.0903C35.6963 47.8264 35.5481 47.4685 35.5481 47.0953V35.8389Z"/>
</mask>
<path d="M38.3622 37.246V34.3254H35.4416V37.246H38.3622ZM38.4686 35.8389C38.4686 36.2404 38.3092 36.6253 38.0253 36.9092L33.895 32.7788C33.0834 33.5904 32.6275 34.6912 32.6275 35.8389H38.4686ZM38.0253 36.9092C37.7415 37.193 37.3565 37.3525 36.9551 37.3525V31.5113C35.8074 31.5113 34.7066 31.9673 33.895 32.7788L38.0253 36.9092ZM36.9551 37.3525H48.2115V31.5113H36.9551V37.3525ZM48.2115 37.3525C47.8101 37.3525 47.4251 37.193 47.1413 36.9092L51.2716 32.7788C50.46 31.9672 49.3593 31.5113 48.2115 31.5113V37.3525ZM47.1413 36.9092C46.8574 36.6253 46.698 36.2403 46.698 35.8389H52.5392C52.5392 34.6912 52.0832 33.5904 51.2716 32.7788L47.1413 36.9092ZM46.698 35.8389C46.698 35.4375 46.8574 35.0526 47.1413 34.7687L51.2716 38.899C52.0832 38.0874 52.5392 36.9867 52.5392 35.8389H46.698ZM47.1413 34.7687C47.4251 34.4849 47.8101 34.3254 48.2115 34.3254V40.1666C49.3593 40.1666 50.46 39.7106 51.2716 38.899L47.1413 34.7687ZM48.2115 34.3254H38.3622V40.1666H48.2115V34.3254ZM35.4416 37.246V47.0953H41.2827V37.246H35.4416ZM35.4416 47.0953C35.4416 46.6939 35.601 46.309 35.8849 46.0251L40.0152 50.1554C40.8268 49.3438 41.2827 48.2431 41.2827 47.0953H35.4416ZM35.8849 46.0251C36.1687 45.7413 36.5537 45.5818 36.9551 45.5818V51.423C38.1029 51.423 39.2036 50.967 40.0152 50.1554L35.8849 46.0251ZM36.9551 45.5818C37.3565 45.5818 37.7415 45.7413 38.0253 46.0251L33.895 50.1554C34.7066 50.967 35.8074 51.423 36.9551 51.423V45.5818ZM38.0253 46.0251C38.3092 46.309 38.4686 46.6939 38.4686 47.0953H32.6275C32.6275 48.2431 33.0834 49.3439 33.895 50.1554L38.0253 46.0251ZM38.4686 47.0953V35.8389H32.6275V47.0953H38.4686Z" fill="white" mask="url(#path-5-inside-2)"/>
</svg>
