<svg width="105" height="105" viewBox="0 0 105 105" fill="none" xmlns="http://www.w3.org/2000/svg">
<path d="M41.7475 17.8753L42.0924 17.7697L42.2853 17.4649L52.1883 1.8135L62.1711 17.4141L62.3656 17.7179L62.711 17.8217C68.377 19.5241 73.5337 22.602 77.7214 26.781L77.7225 26.782C91.8256 40.8133 91.8839 63.6193 77.8526 77.7225C63.8213 91.8257 41.0153 91.8839 26.9121 77.8526C12.809 63.8213 12.7507 41.0153 26.782 26.9121L26.783 26.9111C30.9494 22.7108 36.0903 19.6066 41.7475 17.8753ZM43.3418 23.0862L43.3406 23.0865C38.5403 24.5565 34.1788 27.1923 30.6454 30.7587C26.382 35.0445 23.485 40.4982 22.3208 46.4303C21.1565 52.363 21.7775 58.5078 24.1055 64.0876C26.4334 69.6674 30.3636 74.4315 35.3992 77.7776C40.4348 81.1237 46.3495 82.9014 52.3954 82.886C58.4413 82.8705 64.3468 81.0626 69.3652 77.6908C74.3837 74.3191 78.2895 69.5349 80.5889 63.9433C82.8883 58.3517 83.478 52.2038 82.2833 46.2771C81.0887 40.3504 78.1634 34.911 73.8774 30.6468C70.2658 27.0536 65.9109 24.4723 61.1415 23.0436C61.1413 23.0435 61.1411 23.0435 61.141 23.0434L58.8641 22.359L53.0389 13.2557L52.2142 11.967L51.3962 13.2599L45.6179 22.3922L43.3418 23.0862Z" fill="#40AD2E" stroke="white" stroke-width="1.94705"/>
<ellipse rx="25.4959" ry="24.2461" transform="matrix(0.705298 -0.708911 -0.708911 -0.705298 52.4942 52.4937)" fill="#2CB724"/>
<mask id="path-3-inside-1" fill="white">
<path fill-rule="evenodd" clip-rule="evenodd" d="M65.6771 52.659C65.6771 52.2757 65.5248 51.9081 65.2538 51.6371C64.9828 51.3661 64.6152 51.2139 64.232 51.2139L52.6714 51.2139C52.2881 51.2139 51.9205 51.3661 51.6495 51.6371C51.3785 51.9081 51.2263 52.2757 51.2263 52.659L51.2263 64.2196C51.2263 64.6029 51.3785 64.9704 51.6495 65.2414C51.9205 65.5124 52.2881 65.6647 52.6714 65.6647C53.0546 65.6647 53.4222 65.5124 53.6932 65.2414C53.9642 64.9704 54.1164 64.6029 54.1164 64.2196L54.1164 54.104L64.232 54.104C64.6152 54.104 64.9828 53.9518 65.2538 53.6808C65.5248 53.4098 65.6771 53.0422 65.6771 52.659Z"/>
</mask>
<path d="M54.1164 54.104L51.1958 54.104L51.1958 51.1835L54.1164 51.1835L54.1164 54.104ZM62.7565 52.659C62.7565 53.0503 62.9119 53.4256 63.1886 53.7023L67.319 49.572C68.1377 50.3907 68.5976 51.5011 68.5976 52.659L62.7565 52.659ZM63.1886 53.7023C63.4654 53.979 63.8407 54.1345 64.232 54.1345L64.232 48.2933C65.3898 48.2933 66.5002 48.7532 67.319 49.572L63.1886 53.7023ZM64.232 54.1345L52.6714 54.1345L52.6713 48.2933L64.232 48.2933L64.232 54.1345ZM52.6714 54.1345C53.0627 54.1345 53.438 53.979 53.7147 53.7023L49.5844 49.572C50.4031 48.7532 51.5135 48.2933 52.6713 48.2933L52.6714 54.1345ZM53.7147 53.7023C53.9914 53.4256 54.1469 53.0503 54.1469 52.659L48.3057 52.659C48.3057 51.5011 48.7656 50.3907 49.5844 49.572L53.7147 53.7023ZM54.1469 52.659L54.1469 64.2196L48.3057 64.2196L48.3057 52.659L54.1469 52.659ZM54.1469 64.2196C54.1469 63.8283 53.9914 63.453 53.7147 63.1763L49.5844 67.3066C48.7656 66.4879 48.3057 65.3774 48.3057 64.2196L54.1469 64.2196ZM53.7147 63.1763C53.438 62.8995 53.0627 62.7441 52.6714 62.7441L52.6714 68.5853C51.5135 68.5853 50.4031 68.1253 49.5844 67.3066L53.7147 63.1763ZM52.6714 62.7441C52.28 62.7441 51.9047 62.8995 51.628 63.1763L55.7583 67.3066C54.9396 68.1253 53.8292 68.5853 52.6714 68.5853L52.6714 62.7441ZM51.628 63.1763C51.3513 63.453 51.1958 63.8283 51.1958 64.2196L57.037 64.2196C57.037 65.3774 56.5771 66.4879 55.7583 67.3066L51.628 63.1763ZM51.1958 64.2196L51.1958 54.104L57.037 54.104L57.037 64.2196L51.1958 64.2196ZM54.1164 51.1835L64.232 51.1835L64.232 57.0246L54.1164 57.0246L54.1164 51.1835ZM64.232 51.1835C63.8407 51.1835 63.4654 51.3389 63.1886 51.6156L67.319 55.7459C66.5003 56.5647 65.3898 57.0246 64.232 57.0246L64.232 51.1835ZM63.1886 51.6156C62.9119 51.8923 62.7565 52.2676 62.7565 52.659L68.5976 52.659C68.5976 53.8168 68.1377 54.9272 67.319 55.7459L63.1886 51.6156Z" fill="white" mask="url(#path-3-inside-1)"/>
<mask id="path-5-inside-2" fill="white">
<path fill-rule="evenodd" clip-rule="evenodd" d="M52.6705 54.1038C53.0538 54.1038 53.4213 53.9516 53.6923 53.6806C53.9634 53.4096 54.1156 53.042 54.1156 52.6587L54.1156 41.0981C54.1156 40.7149 53.9634 40.3473 53.6923 40.0763C53.4213 39.8053 53.0538 39.653 52.6705 39.653C52.2873 39.653 51.9197 39.8053 51.6487 40.0763C51.3777 40.3473 51.2254 40.7149 51.2254 41.0981L51.2254 51.2137L41.1099 51.2137C40.7266 51.2137 40.3591 51.3659 40.0881 51.6369C39.8171 51.9079 39.6648 52.2755 39.6648 52.6587C39.6648 53.042 39.8171 53.4096 40.0881 53.6806C40.3591 53.9516 40.7266 54.1038 41.1099 54.1038L52.6705 54.1038Z"/>
</mask>
<path d="M51.2254 51.2137L54.146 51.2137L54.146 54.1342L51.2254 54.1342L51.2254 51.2137ZM52.6705 51.1832C52.2792 51.1832 51.9039 51.3387 51.6272 51.6154L55.7575 55.7457C54.9388 56.5644 53.8284 57.0244 52.6705 57.0244L52.6705 51.1832ZM51.6272 51.6154C51.3505 51.8921 51.195 52.2674 51.195 52.6587L57.0362 52.6587C57.0362 53.8166 56.5762 54.927 55.7575 55.7457L51.6272 51.6154ZM51.195 52.6587L51.195 41.0981L57.0362 41.0981L57.0362 52.6587L51.195 52.6587ZM51.195 41.0981C51.195 41.4894 51.3505 41.8647 51.6272 42.1414L55.7575 38.0111C56.5762 38.8298 57.0362 39.9403 57.0362 41.0981L51.195 41.0981ZM51.6272 42.1414C51.9039 42.4182 52.2792 42.5736 52.6705 42.5736L52.6705 36.7324C53.8284 36.7324 54.9388 37.1924 55.7575 38.0111L51.6272 42.1414ZM52.6705 42.5736C53.0618 42.5736 53.4371 42.4182 53.7139 42.1414L49.5835 38.0111C50.4023 37.1924 51.5127 36.7324 52.6705 36.7324L52.6705 42.5736ZM53.7139 42.1414C53.9906 41.8647 54.146 41.4894 54.146 41.0981L48.3049 41.0981C48.3049 39.9403 48.7648 38.8298 49.5835 38.0111L53.7139 42.1414ZM54.146 41.0981L54.146 51.2137L48.3049 51.2137L48.3049 41.0981L54.146 41.0981ZM51.2254 54.1342L41.1099 54.1342L41.1099 48.2931L51.2254 48.2931L51.2254 54.1342ZM41.1099 54.1342C41.5012 54.1342 41.8765 53.9788 42.1532 53.7021L38.0229 49.5718C38.8416 48.753 39.9521 48.2931 41.1099 48.2931L41.1099 54.1342ZM42.1532 53.7021C42.4299 53.4254 42.5854 53.0501 42.5854 52.6587L36.7442 52.6587C36.7442 51.5009 37.2042 50.3905 38.0229 49.5718L42.1532 53.7021ZM42.5854 52.6587C42.5854 52.2674 42.4299 51.8921 42.1532 51.6154L38.0229 55.7457C37.2042 54.927 36.7442 53.8166 36.7442 52.6587L42.5854 52.6587ZM42.1532 51.6154C41.8765 51.3387 41.5012 51.1832 41.1099 51.1832L41.1099 57.0244C39.952 57.0244 38.8416 56.5645 38.0229 55.7457L42.1532 51.6154ZM41.1099 51.1832L52.6705 51.1832L52.6705 57.0244L41.1099 57.0244L41.1099 51.1832Z" fill="white" mask="url(#path-5-inside-2)"/>
</svg>
