<svg width="73" height="73" viewBox="0 0 73 73" fill="none" xmlns="http://www.w3.org/2000/svg">
<path d="M20.098 67.2179L19.7799 67.0478L19.4278 67.1261L1.8629 71.0302L5.76695 53.4652L5.84521 53.1131L5.67515 52.795C2.96121 47.7187 1.54547 42.0497 1.55413 36.2934V36.292C1.55413 16.9355 17.2446 1.24501 36.6011 1.24501C55.9575 1.24501 71.648 16.9355 71.648 36.292C71.648 55.6484 55.9575 71.3389 36.6011 71.3389H36.5996C30.8434 71.3476 25.1744 69.9318 20.098 67.2179ZM22.5759 62.5841L22.5769 62.5846C26.8919 64.8906 31.7107 66.0921 36.6031 66.0819C42.4943 66.0815 48.2531 64.3344 53.1515 61.0614C58.0504 57.788 61.8686 53.1355 64.1234 47.6921C66.3781 42.2487 66.968 36.2589 65.8186 30.4802C64.6691 24.7016 61.8319 19.3935 57.6657 15.2273C53.4995 11.0611 48.1915 8.22391 42.4128 7.07446C36.6341 5.92501 30.6444 6.51495 25.201 8.76968C19.7576 11.0244 15.105 14.8427 11.8317 19.7416C8.55832 24.6405 6.81118 30.4001 6.81118 36.292C6.81118 41.2567 8.02109 46.0395 10.3122 50.3165C10.3123 50.3167 10.3124 50.3168 10.3125 50.317L11.3992 52.3502L9.11806 62.6134L8.78612 64.1069L10.2796 63.775L20.5422 61.494L22.5759 62.5841Z" fill="#40AD2E" stroke="white" stroke-width="1.94705"/>
<ellipse rx="24.8249" ry="23.608" transform="matrix(-1 0 0 1 36.6005 36.0486)" fill="#2CB724"/>
<mask id="path-3-inside-1" fill="white">
<path fill-rule="evenodd" clip-rule="evenodd" d="M36.593 23.1493C36.2198 23.1493 35.8619 23.2975 35.598 23.5614C35.3341 23.8253 35.1859 24.1832 35.1859 24.5563V35.8127C35.1859 36.1859 35.3341 36.5438 35.598 36.8077C35.8619 37.0716 36.2198 37.2198 36.593 37.2198H47.8494C48.2225 37.2198 48.5804 37.0716 48.8443 36.8077C49.1082 36.5438 49.2564 36.1859 49.2564 35.8127C49.2564 35.4396 49.1082 35.0817 48.8443 34.8178C48.5804 34.5539 48.2225 34.4057 47.8494 34.4057H38V24.5563C38 24.1832 37.8518 23.8253 37.5879 23.5614C37.324 23.2975 36.9661 23.1493 36.593 23.1493Z"/>
</mask>
<path d="M38 34.4057V37.3263H35.0794V34.4057H38ZM36.593 26.0699C36.9944 26.0699 37.3793 25.9104 37.6632 25.6266L33.5329 21.4962C34.3444 20.6847 35.4452 20.2287 36.593 20.2287V26.0699ZM37.6632 25.6266C37.947 25.3427 38.1065 24.9578 38.1065 24.5563H32.2653C32.2653 23.4086 32.7213 22.3078 33.5329 21.4962L37.6632 25.6266ZM38.1065 24.5563V35.8127H32.2653V24.5563H38.1065ZM38.1065 35.8127C38.1065 35.4113 37.947 35.0264 37.6632 34.7425L33.5329 38.8728C32.7213 38.0613 32.2653 36.9605 32.2653 35.8127H38.1065ZM37.6632 34.7425C37.3793 34.4587 36.9944 34.2992 36.593 34.2992V40.1404C35.4452 40.1404 34.3444 39.6844 33.5329 38.8728L37.6632 34.7425ZM36.593 34.2992H47.8494V40.1404H36.593V34.2992ZM47.8494 34.2992C47.4479 34.2992 47.063 34.4587 46.7791 34.7425L50.9095 38.8728C50.0979 39.6844 48.9971 40.1404 47.8494 40.1404V34.2992ZM46.7791 34.7425C46.4953 35.0264 46.3358 35.4113 46.3358 35.8127H52.177C52.177 36.9605 51.721 38.0613 50.9095 38.8728L46.7791 34.7425ZM46.3358 35.8127C46.3358 36.2142 46.4953 36.5991 46.7791 36.883L50.9095 32.7527C51.721 33.5642 52.177 34.665 52.177 35.8127H46.3358ZM46.7791 36.883C47.063 37.1668 47.4479 37.3263 47.8494 37.3263V31.4851C48.9971 31.4851 50.0979 31.9411 50.9095 32.7527L46.7791 36.883ZM47.8494 37.3263H38V31.4851H47.8494V37.3263ZM35.0794 34.4057V24.5563H40.9206V34.4057H35.0794ZM35.0794 24.5563C35.0794 24.9578 35.2389 25.3427 35.5227 25.6266L39.653 21.4962C40.4646 22.3078 40.9206 23.4086 40.9206 24.5563H35.0794ZM35.5227 25.6266C35.8066 25.9104 36.1915 26.0699 36.593 26.0699V20.2287C37.7407 20.2287 38.8415 20.6847 39.653 21.4962L35.5227 25.6266Z" fill="white" mask="url(#path-3-inside-1)"/>
<mask id="path-5-inside-2" fill="white">
<path fill-rule="evenodd" clip-rule="evenodd" d="M37.9999 35.8129C37.9999 35.4398 37.8517 35.0819 37.5878 34.818C37.3239 34.5541 36.9661 34.4059 36.5929 34.4059H25.3365C24.9633 34.4059 24.6054 34.5541 24.3415 34.818C24.0777 35.0819 23.9294 35.4398 23.9294 35.8129C23.9294 36.1861 24.0777 36.544 24.3415 36.8079C24.6054 37.0717 24.9633 37.22 25.3365 37.22H35.1858V47.0693C35.1858 47.4425 35.3341 47.8004 35.598 48.0643C35.8618 48.3281 36.2197 48.4764 36.5929 48.4764C36.9661 48.4764 37.3239 48.3281 37.5878 48.0643C37.8517 47.8004 37.9999 47.4425 37.9999 47.0693V35.8129Z"/>
</mask>
<path d="M35.1858 37.22V34.2994H38.1064V37.22H35.1858ZM35.0794 35.8129C35.0794 36.2143 35.2388 36.5993 35.5227 36.8832L39.653 32.7528C40.4646 33.5644 40.9205 34.6652 40.9205 35.8129H35.0794ZM35.5227 36.8832C35.8065 37.167 36.1915 37.3265 36.5929 37.3265V31.4853C37.7406 31.4853 38.8414 31.9413 39.653 32.7528L35.5227 36.8832ZM36.5929 37.3265H25.3365V31.4853H36.5929V37.3265ZM25.3365 37.3265C25.7379 37.3265 26.1229 37.167 26.4067 36.8832L22.2764 32.7528C23.088 31.9412 24.1887 31.4853 25.3365 31.4853V37.3265ZM26.4067 36.8832C26.6906 36.5993 26.85 36.2143 26.85 35.8129H21.0089C21.0089 34.6652 21.4648 33.5644 22.2764 32.7528L26.4067 36.8832ZM26.85 35.8129C26.85 35.4115 26.6906 35.0266 26.4067 34.7427L22.2764 38.873C21.4648 38.0614 21.0089 36.9607 21.0089 35.8129H26.85ZM26.4067 34.7427C26.1229 34.4589 25.7379 34.2994 25.3365 34.2994V40.1406C24.1887 40.1406 23.088 39.6846 22.2764 38.873L26.4067 34.7427ZM25.3365 34.2994H35.1858V40.1406H25.3365V34.2994ZM38.1064 37.22V47.0693H32.2653V37.22H38.1064ZM38.1064 47.0693C38.1064 46.6679 37.947 46.283 37.6631 45.9991L33.5328 50.1294C32.7212 49.3178 32.2653 48.2171 32.2653 47.0693H38.1064ZM37.6631 45.9991C37.3793 45.7153 36.9943 45.5558 36.5929 45.5558V51.397C35.4451 51.397 34.3444 50.941 33.5328 50.1294L37.6631 45.9991ZM36.5929 45.5558C36.1915 45.5558 35.8065 45.7153 35.5227 45.9991L39.653 50.1294C38.8414 50.941 37.7406 51.397 36.5929 51.397V45.5558ZM35.5227 45.9991C35.2388 46.283 35.0794 46.6679 35.0794 47.0693H40.9205C40.9205 48.2171 40.4646 49.3179 39.653 50.1294L35.5227 45.9991ZM35.0794 47.0693V35.8129H40.9205V47.0693H35.0794Z" fill="white" mask="url(#path-5-inside-2)"/>
</svg>
