<svg width="197" height="142" viewBox="0 0 197 142" fill="none" xmlns="http://www.w3.org/2000/svg">
<path d="M21.7847 141.63C21.7847 141.63 40.8498 86.9353 105.896 86.9353H14.0172L21.7847 141.63Z" fill="url(#paint0_radial)"/>
<path d="M177.836 0H23.0159C13.8196 0.113298 -2.39235 3.82381 0.2971 27.0135C2.92462 49.6731 20.3486 134.728 21.6844 141.234C21.7552 141.493 21.795 141.639 21.795 141.639C21.795 141.639 24.3783 86.9361 65.9189 86.9361H154.742C156.617 86.9361 158.356 86.9361 159.979 86.8916C175.35 86.1268 179 80.3365 182.631 71.2483C186.537 61.4723 190.97 46.2135 194.88 31.4321C198.75 16.8612 192.978 0.465332 177.836 0Z" fill="url(#paint1_linear)"/>
<path d="M186.045 2.18848C193.759 7.7239 196.219 19.5878 193.361 30.4523C189.451 45.2337 185.018 60.4925 181.113 70.2685C177.476 79.3566 173.832 85.147 158.46 85.9118C156.837 85.9441 155.098 85.9563 153.223 85.9563H64.3823C30.0166 85.9563 22.3065 123.389 20.6699 136.321C21.1741 138.806 21.5236 140.509 21.674 141.234C21.7448 141.493 21.7846 141.638 21.7846 141.638C21.7846 141.638 24.3767 86.9355 65.9173 86.9355H154.74C156.615 86.9355 158.354 86.9355 159.977 86.891C175.349 86.1262 178.998 80.3359 182.63 71.2477C186.536 61.4717 190.968 46.2129 194.878 31.4315C197.948 19.8832 194.958 7.18169 186.045 2.18848Z" fill="url(#paint2_linear)"/>
<path d="M58.146 38.3263C55.0184 38.3263 51.5537 38.1391 47.7519 37.7645V33.9721C51.8908 34.253 54.9809 34.3934 57.0223 34.3934C57.453 34.3934 57.7901 34.2717 58.0336 34.0282C58.2958 33.7661 58.4269 33.4196 58.4269 32.9888V31.5842C58.4269 30.4606 57.865 29.8987 56.7414 29.8987H48.5947V18.381H62.0789V22.3139H53.6512V25.9658H58.146C59.9813 25.9658 61.3297 26.3872 62.1912 27.23C63.0527 28.054 63.4835 29.3181 63.4835 31.0224V32.9888C63.4835 34.8242 63.0527 36.1726 62.1912 37.0341C61.3297 37.8956 59.9813 38.3263 58.146 38.3263ZM67.8191 38.0454V22.7352L64.5885 23.8589L63.1839 20.6283L68.3809 18.381H72.8756V38.0454H67.8191ZM75.4116 33.8316H80.4682V38.0454H75.4116V33.8316ZM93.9589 23.7185C93.9589 22.5948 93.3971 22.0329 92.2734 22.0329H89.1833C88.0596 22.0329 87.4978 22.5948 87.4978 23.7185V32.7079C87.4978 33.8316 88.0596 34.3934 89.1833 34.3934H92.2734C93.3971 34.3934 93.9589 33.8316 93.9589 32.7079V23.7185ZM99.0155 32.7079C99.0155 34.6744 98.566 36.1071 97.6671 37.006C96.7869 37.8862 95.3635 38.3263 93.3971 38.3263H88.0596C86.0932 38.3263 84.6605 37.8862 83.7615 37.006C82.8813 36.1071 82.4412 34.6744 82.4412 32.7079V23.7185C82.4412 21.752 82.8813 20.3287 83.7615 19.4485C84.6605 18.5495 86.0932 18.1001 88.0596 18.1001H93.3971C95.3635 18.1001 96.7869 18.5495 97.6671 19.4485C98.566 20.3287 99.0155 21.752 99.0155 23.7185V32.7079ZM112.778 23.7185C112.778 22.5948 112.217 22.0329 111.093 22.0329H108.003C106.879 22.0329 106.317 22.5948 106.317 23.7185V32.7079C106.317 33.8316 106.879 34.3934 108.003 34.3934H111.093C112.217 34.3934 112.778 33.8316 112.778 32.7079V23.7185ZM117.835 32.7079C117.835 34.6744 117.386 36.1071 116.487 37.006C115.606 37.8862 114.183 38.3263 112.217 38.3263H106.879C104.913 38.3263 103.48 37.8862 102.581 37.006C101.701 36.1071 101.261 34.6744 101.261 32.7079V23.7185C101.261 21.752 101.701 20.3287 102.581 19.4485C103.48 18.5495 104.913 18.1001 106.879 18.1001H112.217C114.183 18.1001 115.606 18.5495 116.487 19.4485C117.386 20.3287 117.835 21.752 117.835 23.7185V32.7079ZM131.598 23.7185C131.598 22.5948 131.036 22.0329 129.912 22.0329H126.822C125.699 22.0329 125.137 22.5948 125.137 23.7185V32.7079C125.137 33.8316 125.699 34.3934 126.822 34.3934H129.912C131.036 34.3934 131.598 33.8316 131.598 32.7079V23.7185ZM136.654 32.7079C136.654 34.6744 136.205 36.1071 135.306 37.006C134.426 37.8862 133.003 38.3263 131.036 38.3263H125.699C123.732 38.3263 122.299 37.8862 121.4 37.006C120.52 36.1071 120.08 34.6744 120.08 32.7079V23.7185C120.08 21.752 120.52 20.3287 121.4 19.4485C122.299 18.5495 123.732 18.1001 125.699 18.1001H131.036C133.003 18.1001 134.426 18.5495 135.306 19.4485C136.205 20.3287 136.654 21.752 136.654 23.7185V32.7079ZM50.627 55.949C49.6344 55.949 48.5107 56.1363 47.2559 56.5109V63.253H51.4697C52.2188 63.253 52.5934 62.8784 52.5934 62.1293V56.9323C52.5934 56.6513 52.4998 56.4172 52.3125 56.23C52.1252 56.0427 51.8911 55.949 51.6102 55.949H50.627ZM47.2559 67.0454V71.8211H42.3398V52.1566H46.6941L46.975 53.5612C47.8552 52.9807 48.7542 52.5593 49.6718 52.2971C50.6082 52.0162 51.3948 51.8757 52.0316 51.8757H53.2957C54.5692 51.8757 55.5899 52.2596 56.3577 53.0275C57.1256 53.7953 57.5095 54.816 57.5095 56.0895V62.5507C57.5095 63.9553 57.1069 65.0602 56.3016 65.8655C55.515 66.6521 54.4194 67.0454 53.0148 67.0454H47.2559ZM63.6931 72.102C62.7005 72.102 61.4831 72.0083 60.0411 71.8211V68.1691H62.5694C63.281 68.1691 63.7399 67.9724 63.9459 67.5792C64.1706 67.1859 64.1332 66.6334 63.8335 65.9217L58.0746 52.1566H63.2717L66.7832 61.7079L69.7328 52.1566H74.9299L69.3115 67.6073C68.7683 69.0868 68.066 70.2011 67.2046 70.9502C66.3431 71.7181 65.1726 72.102 63.6931 72.102ZM80.4166 54.6849C82.2332 54.3103 83.8251 54.1231 85.1923 54.1231H86.4564C87.7299 54.1231 88.7506 54.507 89.5184 55.2748C90.2863 56.0427 90.6702 57.0634 90.6702 58.3369V62.8316C90.6702 64.2362 90.2676 65.3412 89.4622 66.1465C88.6757 66.933 87.5801 67.3263 86.1755 67.3263H79.9952C78.5906 67.3263 77.4857 66.933 76.6804 66.1465C75.8938 65.3412 75.5005 64.2362 75.5005 62.8316V52.8589C75.5005 51.5105 75.95 50.3775 76.8489 49.4598C77.7666 48.5421 79.0026 47.9896 80.5571 47.8024L90.1084 46.6787L90.5297 50.6116L81.8212 51.5948C80.8848 51.7071 80.4166 52.1753 80.4166 52.9994V54.6849ZM84.6304 63.5339C85.3795 63.5339 85.7541 63.1593 85.7541 62.4102V58.8987C85.7541 58.6178 85.6605 58.3837 85.4732 58.1964C85.2859 58.0091 85.0518 57.9155 84.7709 57.9155H83.7877C83.0573 57.9155 82.4018 57.9529 81.8212 58.0279C81.2406 58.1028 80.7724 58.159 80.4166 58.1964V62.4102C80.4166 63.1593 80.7912 63.5339 81.5403 63.5339H84.6304ZM94.613 67.3263C93.8077 67.3263 92.8713 67.2327 91.8038 67.0454V63.3934H92.9274C93.6391 63.3934 94.0137 63.0189 94.0511 62.2698L94.613 52.1566H108.097V67.0454H103.181V55.949H99.2482L98.8268 63.1125C98.7519 64.386 98.3305 65.4067 97.5626 66.1746C96.7948 66.9424 95.8116 67.3263 94.613 67.3263ZM116.655 55.3872C115.906 55.3872 115.532 55.7618 115.532 56.5109V58.056H120.307V56.5109C120.307 55.7618 119.933 55.3872 119.184 55.3872H116.655ZM124.662 66.7645C121.047 67.1391 117.77 67.3263 114.829 67.3263C113.556 67.3263 112.535 66.9424 111.767 66.1746C110.999 65.4067 110.616 64.386 110.616 63.1125V56.3704C110.616 54.9658 111.009 53.8702 111.795 53.0837C112.601 52.2784 113.706 51.8757 115.11 51.8757H120.729C122.133 51.8757 123.229 52.2784 124.015 53.0837C124.821 53.8702 125.223 54.9658 125.223 56.3704V61.5675H115.532V62.6911C115.532 62.9721 115.625 63.2062 115.813 63.3934C116 63.5807 116.234 63.6744 116.515 63.6744C118.369 63.6744 121.085 63.5339 124.662 63.253V66.7645ZM133.64 50.752C131.205 50.752 129.988 49.5347 129.988 47.1001V46.2573H133.64V46.9596C133.64 47.2405 133.734 47.4746 133.921 47.6619C134.108 47.8492 134.342 47.9428 134.623 47.9428H135.466C135.747 47.9428 135.981 47.8492 136.168 47.6619C136.356 47.4746 136.449 47.2405 136.449 46.9596V46.2573H140.101V47.1001C140.101 49.5347 138.884 50.752 136.449 50.752H133.64ZM137.432 52.1566H142.63V67.0454H137.713V58.8987L132.938 67.0454H127.741V52.1566H132.657V60.3033L137.432 52.1566Z" fill="white"/>
<defs>
<radialGradient id="paint0_radial" cx="0" cy="0" r="1" gradientUnits="userSpaceOnUse" gradientTransform="translate(56.3982 106.795) rotate(180) scale(58.3629 53.3877)">
<stop stop-color="#3BBC33"/>
<stop offset="1" stop-color="#2C7927"/>
</radialGradient>
<linearGradient id="paint1_linear" x1="196.747" y1="85.5887" x2="-27.3205" y2="44.5684" gradientUnits="userSpaceOnUse">
<stop stop-color="#18F10A"/>
<stop offset="0.11" stop-color="#3BA934"/>
<stop offset="0.24" stop-color="#3BBC33"/>
<stop offset="0.84" stop-color="#31CD27"/>
<stop offset="1" stop-color="#0FFF00"/>
</linearGradient>
<linearGradient id="paint2_linear" x1="264.999" y1="-20.4388" x2="35.3567" y2="169.404" gradientUnits="userSpaceOnUse">
<stop stop-color="#33CC2A"/>
<stop offset="0.1" stop-color="#3A8D35"/>
<stop offset="0.24" stop-color="#3BBC33"/>
<stop offset="0.84" stop-color="#3BBC33"/>
<stop offset="1" stop-color="#31D027"/>
</linearGradient>
</defs>
</svg>
