<svg width="170" height="123" viewBox="0 0 170 123" fill="none" xmlns="http://www.w3.org/2000/svg">
<path d="M18.8158 122.317C18.8158 122.317 35.2831 75.0811 91.4666 75.0811H12.1067L18.8158 122.317Z" fill="url(#paint0_radial)"/>
<path d="M153.605 0H19.8798C11.9365 0.0978484 -2.06637 3.30238 0.256618 23.3298C2.52612 42.8995 17.5759 116.356 18.7297 121.975C18.7909 122.199 18.8253 122.324 18.8253 122.324C18.8253 122.324 21.0566 75.0812 56.9368 75.0812H133.657C135.277 75.0812 136.778 75.0812 138.18 75.0427C151.457 74.3822 154.609 69.3815 157.746 61.5326C161.12 53.0897 164.948 39.9117 168.326 27.1459C171.669 14.5619 166.683 0.401877 153.605 0Z" fill="url(#paint1_linear)"/>
<path d="M160.694 1.89062C167.357 6.67122 169.482 16.9173 167.013 26.3003C163.636 39.066 159.808 52.2441 156.434 60.687C153.293 68.5359 150.145 73.5366 136.868 74.1971C135.466 74.2251 133.964 74.2355 132.344 74.2355H55.6091C25.926 74.2355 19.2665 106.564 17.8529 117.733C18.2884 119.878 18.5903 121.35 18.7202 121.975C18.7813 122.199 18.8157 122.325 18.8157 122.325C18.8157 122.325 21.0546 75.0812 56.9349 75.0812H133.655C135.275 75.0812 136.776 75.0812 138.178 75.0428C151.455 74.3823 154.608 69.3815 157.744 61.5327C161.118 53.0898 164.946 39.9117 168.324 27.146C170.975 17.1724 168.393 6.20294 160.694 1.89062Z" fill="url(#paint2_linear)"/>
<path d="M43.7512 28.7581H34.2233V25.153L40.4036 14.3375H45.5538L39.3735 25.153H43.7512V21.2903H48.3864V25.153H50.189V28.7581H48.3864V32.3633H43.7512V28.7581ZM60.4994 32.6208C57.6325 32.6208 54.4565 32.4491 50.9715 32.1058V28.6294C54.7655 28.8869 57.5981 29.0156 59.4694 29.0156C59.8642 29.0156 60.1732 28.9041 60.3964 28.6809C60.6368 28.4405 60.7569 28.1229 60.7569 27.7281V26.4405C60.7569 25.4105 60.2419 24.8955 59.2119 24.8955H51.7441V14.3375H64.1046V17.9427H56.3793V21.2903H60.4994C62.1818 21.2903 63.4179 21.6766 64.2076 22.4491C64.9973 23.2045 65.3921 24.3633 65.3921 25.9255V27.7281C65.3921 29.4105 64.9973 30.6465 64.2076 31.4362C63.4179 32.2259 62.1818 32.6208 60.4994 32.6208ZM66.6696 28.5006H71.3048V32.3633H66.6696V28.5006ZM83.6713 19.2302C83.6713 18.2002 83.1563 17.6852 82.1263 17.6852H79.2937C78.2636 17.6852 77.7486 18.2002 77.7486 19.2302V27.4706C77.7486 28.5006 78.2636 29.0156 79.2937 29.0156H82.1263C83.1563 29.0156 83.6713 28.5006 83.6713 27.4706V19.2302ZM88.3065 27.4706C88.3065 29.2732 87.8945 30.5865 87.0705 31.4105C86.2636 32.2174 84.9589 32.6208 83.1563 32.6208H78.2636C76.4611 32.6208 75.1477 32.2174 74.3237 31.4105C73.5168 30.5865 73.1134 29.2732 73.1134 27.4706V19.2302C73.1134 17.4277 73.5168 16.123 74.3237 15.3161C75.1477 14.4921 76.4611 14.08 78.2636 14.08H83.1563C84.9589 14.08 86.2636 14.4921 87.0705 15.3161C87.8945 16.123 88.3065 17.4277 88.3065 19.2302V27.4706ZM100.923 19.2302C100.923 18.2002 100.408 17.6852 99.3775 17.6852H96.5449C95.5148 17.6852 94.9998 18.2002 94.9998 19.2302V27.4706C94.9998 28.5006 95.5148 29.0156 96.5449 29.0156H99.3775C100.408 29.0156 100.923 28.5006 100.923 27.4706V19.2302ZM105.558 27.4706C105.558 29.2732 105.146 30.5865 104.322 31.4105C103.515 32.2174 102.21 32.6208 100.408 32.6208H95.5148C93.7122 32.6208 92.3989 32.2174 91.5749 31.4105C90.768 30.5865 90.3646 29.2732 90.3646 27.4706V19.2302C90.3646 17.4277 90.768 16.123 91.5749 15.3161C92.3989 14.4921 93.7122 14.08 95.5148 14.08H100.408C102.21 14.08 103.515 14.4921 104.322 15.3161C105.146 16.123 105.558 17.4277 105.558 19.2302V27.4706ZM118.174 19.2302C118.174 18.2002 117.659 17.6852 116.629 17.6852H113.796C112.766 17.6852 112.251 18.2002 112.251 19.2302V27.4706C112.251 28.5006 112.766 29.0156 113.796 29.0156H116.629C117.659 29.0156 118.174 28.5006 118.174 27.4706V19.2302ZM122.809 27.4706C122.809 29.2732 122.397 30.5865 121.573 31.4105C120.766 32.2174 119.461 32.6208 117.659 32.6208H112.766C110.963 32.6208 109.65 32.2174 108.826 31.4105C108.019 30.5865 107.616 29.2732 107.616 27.4706V19.2302C107.616 17.4277 108.019 16.123 108.826 15.3161C109.65 14.4921 110.963 14.08 112.766 14.08H117.659C119.461 14.08 120.766 14.4921 121.573 15.3161C122.397 16.123 122.809 17.4277 122.809 19.2302V27.4706ZM40.4046 51.1916C39.4947 51.1916 38.4646 51.3633 37.3144 51.7066V57.8869H41.1771C41.8638 57.8869 42.2071 57.5435 42.2071 56.8568V52.0929C42.2071 51.8354 42.1213 51.6208 41.9496 51.4491C41.7779 51.2775 41.5634 51.1916 41.3058 51.1916H40.4046ZM37.3144 61.3633V65.741H32.808V47.7152H36.7994L37.0569 49.0028C37.8638 48.4706 38.6878 48.0843 39.529 47.844C40.3874 47.5865 41.1084 47.4577 41.6921 47.4577H42.8509C44.0183 47.4577 44.9539 47.8096 45.6578 48.5135C46.3616 49.2174 46.7136 50.153 46.7136 51.3204V57.2431C46.7136 58.5307 46.3445 59.5435 45.6063 60.2817C44.8852 61.0028 43.8809 61.3633 42.5934 61.3633H37.3144ZM52.3818 65.9985C51.4719 65.9985 50.3561 65.9126 49.0342 65.741V62.3933H51.3518C52.0041 62.3933 52.4247 62.2131 52.6136 61.8526C52.8196 61.492 52.7852 60.9856 52.5106 60.3332L47.2316 47.7152H51.9955L55.2144 56.4706L57.9183 47.7152H62.6822L57.532 61.8783C57.0342 63.2345 56.3904 64.256 55.6007 64.9427C54.811 65.6465 53.738 65.9985 52.3818 65.9985ZM67.7117 50.0328C69.377 49.6895 70.8362 49.5178 72.0894 49.5178H73.2482C74.4156 49.5178 75.3512 49.8697 76.0551 50.5736C76.7589 51.2775 77.1109 52.2131 77.1109 53.3805V57.5006C77.1109 58.7882 76.7418 59.8011 76.0036 60.5392C75.2825 61.2603 74.2783 61.6208 72.9907 61.6208H67.3255C66.0379 61.6208 65.025 61.2603 64.2868 60.5392C63.5658 59.8011 63.2053 58.7882 63.2053 57.5006V48.359C63.2053 47.123 63.6173 46.0843 64.4414 45.2431C65.2826 44.4019 66.4156 43.8955 67.8405 43.7238L76.5958 42.6938L76.9821 46.2989L68.9993 47.2002C68.1409 47.3032 67.7117 47.7324 67.7117 48.4878V50.0328ZM71.5744 58.1444C72.2611 58.1444 72.6044 57.8011 72.6044 57.1144V53.8955C72.6044 53.638 72.5186 53.4234 72.3469 53.2517C72.1752 53.08 71.9607 52.9942 71.7031 52.9942H70.8019C70.1323 52.9942 69.5315 53.0285 68.9993 53.0972C68.4671 53.1659 68.0379 53.2174 67.7117 53.2517V57.1144C67.7117 57.8011 68.0551 58.1444 68.7418 58.1444H71.5744ZM80.7251 61.6208C79.9869 61.6208 79.1285 61.535 78.15 61.3633V58.0156H79.18C79.8324 58.0156 80.1757 57.6723 80.21 56.9856L80.7251 47.7152H93.0856V61.3633H88.5791V51.1916H84.974L84.5877 57.7581C84.5191 58.9255 84.1328 59.8611 83.4289 60.565C82.7251 61.2689 81.8238 61.6208 80.7251 61.6208ZM100.931 50.6766C100.244 50.6766 99.9005 51.0199 99.9005 51.7066V53.1229H104.278V51.7066C104.278 51.0199 103.935 50.6766 103.248 50.6766H100.931ZM108.27 61.1058C104.956 61.4491 101.952 61.6208 99.2568 61.6208C98.0894 61.6208 97.1538 61.2689 96.4499 60.565C95.746 59.8611 95.3941 58.9255 95.3941 57.7581V51.5779C95.3941 50.2903 95.7546 49.286 96.4757 48.565C97.2138 47.8268 98.2267 47.4577 99.5143 47.4577H104.664C105.952 47.4577 106.956 47.8268 107.677 48.565C108.416 49.286 108.785 50.2903 108.785 51.5779V56.3418H99.9005V57.3719C99.9005 57.6294 99.9864 57.844 100.158 58.0156C100.33 58.1873 100.544 58.2732 100.802 58.2732C102.501 58.2732 104.991 58.1444 108.27 57.8869V61.1058ZM116.5 46.4277C114.268 46.4277 113.152 45.3118 113.152 43.08V42.3075H116.5V42.9513C116.5 43.2088 116.586 43.4234 116.757 43.5951C116.929 43.7667 117.144 43.8526 117.401 43.8526H118.174C118.431 43.8526 118.646 43.7667 118.818 43.5951C118.989 43.4234 119.075 43.2088 119.075 42.9513V42.3075H122.423V43.08C122.423 45.3118 121.307 46.4277 119.075 46.4277H116.5ZM119.976 47.7152H124.74V61.3633H120.234V53.8955L115.856 61.3633H111.092V47.7152H115.599V55.183L119.976 47.7152Z" fill="white"/>
<defs>
<radialGradient id="paint0_radial" cx="0" cy="0" r="1" gradientUnits="userSpaceOnUse" gradientTransform="translate(48.7129 92.2325) rotate(180) scale(50.4104 46.1076)">
<stop stop-color="#3BBC33"/>
<stop offset="1" stop-color="#2C7927"/>
</radialGradient>
<linearGradient id="paint1_linear" x1="169.938" y1="73.9175" x2="-23.5963" y2="38.4826" gradientUnits="userSpaceOnUse">
<stop stop-color="#18F10A"/>
<stop offset="0.11" stop-color="#3BA934"/>
<stop offset="0.24" stop-color="#3BBC33"/>
<stop offset="0.84" stop-color="#31CD27"/>
<stop offset="1" stop-color="#0FFF00"/>
</linearGradient>
<linearGradient id="paint2_linear" x1="228.89" y1="-17.6511" x2="30.5581" y2="146.328" gradientUnits="userSpaceOnUse">
<stop stop-color="#33CC2A"/>
<stop offset="0.1" stop-color="#3A8D35"/>
<stop offset="0.24" stop-color="#3BBC33"/>
<stop offset="0.84" stop-color="#3BBC33"/>
<stop offset="1" stop-color="#31D027"/>
</linearGradient>
</defs>
</svg>
