<svg width="167" height="120" viewBox="0 0 167 120" fill="none" xmlns="http://www.w3.org/2000/svg">
<path d="M18.4646 119.976C18.4646 119.976 34.6237 73.6439 89.7556 73.6439H11.881L18.4646 119.976Z" fill="url(#paint0_radial)"/>
<path d="M150.73 0H19.5077C11.7131 0.0959757 -2.0277 3.23918 0.251815 22.8833C2.47884 42.0785 17.2469 114.129 18.3792 119.641C18.4392 119.86 18.4729 119.983 18.4729 119.983C18.4729 119.983 20.6625 73.6442 55.8712 73.6442H131.155C132.745 73.6442 134.218 73.6442 135.594 73.6065C148.623 72.9587 151.716 68.0536 154.794 60.355C158.104 52.0737 161.861 39.1478 165.175 26.6264C168.456 14.2832 163.563 0.394186 150.73 0Z" fill="url(#paint1_linear)"/>
<path d="M157.687 1.854C164.226 6.5431 166.31 16.5931 163.888 25.7965C160.574 38.3179 156.817 51.2438 153.507 59.5251C150.425 67.2237 147.336 72.1288 134.307 72.7766C132.931 72.804 131.458 72.8143 129.868 72.8143H54.5692C25.4417 72.8143 18.9069 104.524 17.5197 115.479C17.9471 117.584 18.2432 119.027 18.3707 119.64C18.4307 119.86 18.4644 119.983 18.4644 119.983C18.4644 119.983 20.6615 73.6438 55.8702 73.6438H131.154C132.744 73.6438 134.217 73.6438 135.593 73.6061C148.622 72.9583 151.715 68.0532 154.793 60.3546C158.103 52.0733 161.86 39.1474 165.174 26.626C167.776 16.8433 165.242 6.08379 157.687 1.854Z" fill="url(#paint2_linear)"/>
<path d="M42.5728 12.5952C44.7109 12.5952 47.286 12.7512 50.2981 13.0634V16.2237C49.4397 16.1769 48.7062 16.1379 48.0975 16.1067C47.5045 16.0599 47.0129 16.0287 46.6227 16.013C46.2481 15.9818 45.8736 15.9506 45.499 15.9194C44.8747 15.8882 44.2973 15.8726 43.7667 15.8726C42.8147 15.8726 42.3387 16.2627 42.3387 17.0431V19.15C43.8525 18.8379 45.1791 18.6818 46.3184 18.6818H47.9571C49.0183 18.6818 49.8689 19.0017 50.5088 19.6416C51.1486 20.2815 51.4686 21.132 51.4686 22.1933V25.2366C51.4686 26.6568 51.1096 27.7181 50.3917 28.4204C49.6738 29.1071 48.5501 29.4504 47.0207 29.4504H42.5728C41.0433 29.4504 39.9196 29.1071 39.2017 28.4204C38.4838 27.7181 38.1249 26.6568 38.1249 25.2366V17.0431C38.1249 15.5136 38.4838 14.3899 39.2017 13.672C39.9196 12.9541 41.0433 12.5952 42.5728 12.5952ZM45.1479 21.9592C44.5548 21.9592 44.0086 21.9904 43.5092 22.0528C43.0254 22.1153 42.6352 22.1621 42.3387 22.1933V24.7684C42.3387 25.7048 42.8069 26.173 43.7433 26.173H45.8502C46.7866 26.173 47.2548 25.7048 47.2548 24.7684V22.7785C47.2548 22.5444 47.1767 22.3494 47.0207 22.1933C46.8646 22.0372 46.6695 21.9592 46.4354 21.9592H45.1479ZM65.0437 17.9795C65.0437 19.3061 64.4818 20.4531 63.3581 21.4208C63.0148 21.7173 62.6402 22.0138 62.2345 22.3103L57.2013 25.9389H65.0437V29.2163H52.4022V24.7684L60.8299 18.6818V17.5113C60.8299 16.5749 60.3617 16.1067 59.4253 16.1067H52.8704V12.8293H60.3617C62.0004 12.8293 63.1865 13.2038 63.92 13.953C64.6691 14.6865 65.0437 15.8726 65.0437 17.5113V17.9795ZM66.4446 25.7048H70.6584V29.2163H66.4446V25.7048ZM81.9007 17.2772C81.9007 16.3408 81.4325 15.8726 80.4961 15.8726H77.921C76.9846 15.8726 76.5164 16.3408 76.5164 17.2772V24.7684C76.5164 25.7048 76.9846 26.173 77.921 26.173H80.4961C81.4325 26.173 81.9007 25.7048 81.9007 24.7684V17.2772ZM86.1145 24.7684C86.1145 26.4071 85.74 27.601 84.9908 28.3501C84.2573 29.0837 83.0712 29.4504 81.4325 29.4504H76.9846C75.3459 29.4504 74.152 29.0837 73.4029 28.3501C72.6694 27.601 72.3026 26.4071 72.3026 24.7684V17.2772C72.3026 15.6385 72.6694 14.4524 73.4029 13.7189C74.152 12.9697 75.3459 12.5952 76.9846 12.5952H81.4325C83.0712 12.5952 84.2573 12.9697 84.9908 13.7189C85.74 14.4524 86.1145 15.6385 86.1145 17.2772V24.7684ZM97.5836 17.2772C97.5836 16.3408 97.1154 15.8726 96.179 15.8726H93.6039C92.6675 15.8726 92.1993 16.3408 92.1993 17.2772V24.7684C92.1993 25.7048 92.6675 26.173 93.6039 26.173H96.179C97.1154 26.173 97.5836 25.7048 97.5836 24.7684V17.2772ZM101.797 24.7684C101.797 26.4071 101.423 27.601 100.674 28.3501C99.9402 29.0837 98.7541 29.4504 97.1154 29.4504H92.6675C91.0288 29.4504 89.8349 29.0837 89.0858 28.3501C88.3523 27.601 87.9855 26.4071 87.9855 24.7684V17.2772C87.9855 15.6385 88.3523 14.4524 89.0858 13.7189C89.8349 12.9697 91.0288 12.5952 92.6675 12.5952H97.1154C98.7541 12.5952 99.9402 12.9697 100.674 13.7189C101.423 14.4524 101.797 15.6385 101.797 17.2772V24.7684ZM113.267 17.2772C113.267 16.3408 112.798 15.8726 111.862 15.8726H109.287C108.35 15.8726 107.882 16.3408 107.882 17.2772V24.7684C107.882 25.7048 108.35 26.173 109.287 26.173H111.862C112.798 26.173 113.267 25.7048 113.267 24.7684V17.2772ZM117.48 24.7684C117.48 26.4071 117.106 27.601 116.357 28.3501C115.623 29.0837 114.437 29.4504 112.798 29.4504H108.35C106.712 29.4504 105.518 29.0837 104.769 28.3501C104.035 27.601 103.668 26.4071 103.668 24.7684V17.2772C103.668 15.6385 104.035 14.4524 104.769 13.7189C105.518 12.9697 106.712 12.5952 108.35 12.5952H112.798C114.437 12.5952 115.623 12.9697 116.357 13.7189C117.106 14.4524 117.48 15.6385 117.48 17.2772V24.7684ZM42.9216 48.9693C42.0945 48.9693 41.1581 49.1254 40.1124 49.4375V55.056H43.6239C44.2482 55.056 44.5603 54.7438 44.5603 54.1196V49.7887C44.5603 49.5546 44.4823 49.3595 44.3262 49.2034C44.1702 49.0474 43.9751 48.9693 43.741 48.9693H42.9216ZM40.1124 58.2163V62.196H36.0157V45.809H39.6442L39.8783 46.9795C40.6118 46.4957 41.361 46.1445 42.1257 45.926C42.906 45.6919 43.5615 45.5749 44.0921 45.5749H45.1456C46.2068 45.5749 47.0574 45.8948 47.6973 46.5347C48.3371 47.1746 48.6571 48.0251 48.6571 49.0864V54.4707C48.6571 55.6412 48.3215 56.562 47.6505 57.2331C46.995 57.8886 46.082 58.2163 44.9115 58.2163H40.1124ZM53.81 62.4301C52.9829 62.4301 51.9684 62.3521 50.7667 62.196V59.1527H52.8736C53.4667 59.1527 53.8491 58.9888 54.0207 58.6611C54.208 58.3334 54.1768 57.873 53.9271 57.2799L49.128 45.809H53.4589L56.3851 53.7684L58.8432 45.809H63.1741L58.492 58.6845C58.0395 59.9174 57.4542 60.846 56.7363 61.4703C56.0184 62.1102 55.043 62.4301 53.81 62.4301ZM67.7463 47.9159C69.2602 47.6038 70.5867 47.4477 71.726 47.4477H72.7795C73.8407 47.4477 74.6913 47.7676 75.3312 48.4075C75.9711 49.0474 76.291 49.8979 76.291 50.9592V54.7048C76.291 55.8753 75.9555 56.7961 75.2844 57.4672C74.6289 58.1227 73.7159 58.4504 72.5454 58.4504H67.3952C66.2247 58.4504 65.3039 58.1227 64.6328 57.4672C63.9773 56.7961 63.6496 55.8753 63.6496 54.7048V46.3942C63.6496 45.2706 64.0241 44.3263 64.7733 43.5616C65.538 42.7969 66.568 42.3365 67.8634 42.1804L75.8228 41.244L76.1739 44.5214L68.9168 45.3408C68.1365 45.4344 67.7463 45.8246 67.7463 46.5113V47.9159ZM71.2578 55.2901C71.8821 55.2901 72.1942 54.9779 72.1942 54.3537V51.4274C72.1942 51.1933 72.1162 50.9982 71.9601 50.8421C71.8041 50.6861 71.609 50.608 71.3749 50.608H70.5555C69.9469 50.608 69.4006 50.6393 68.9168 50.7017C68.433 50.7641 68.0429 50.8109 67.7463 50.8421V54.3537C67.7463 54.9779 68.0585 55.2901 68.6827 55.2901H71.2578ZM79.5766 58.4504C78.9055 58.4504 78.1252 58.3724 77.2356 58.2163V55.173H78.172C78.7651 55.173 79.0772 54.8609 79.1084 54.2366L79.5766 45.809H90.8135V58.2163H86.7167V48.9693H83.4393L83.0881 54.9389C83.0257 56.0002 82.6746 56.8507 82.0347 57.4906C81.3948 58.1305 80.5755 58.4504 79.5766 58.4504ZM97.9453 48.5011C97.321 48.5011 97.0089 48.8133 97.0089 49.4375V50.7251H100.989V49.4375C100.989 48.8133 100.676 48.5011 100.052 48.5011H97.9453ZM104.617 57.9822C101.605 58.2943 98.8739 58.4504 96.4236 58.4504C95.3624 58.4504 94.5118 58.1305 93.8719 57.4906C93.2321 56.8507 92.9121 56.0002 92.9121 54.9389V49.3205C92.9121 48.15 93.2399 47.237 93.8953 46.5815C94.5664 45.9104 95.4872 45.5749 96.6577 45.5749H101.34C102.51 45.5749 103.423 45.9104 104.079 46.5815C104.75 47.237 105.085 48.15 105.085 49.3205V53.6513H97.0089V54.5878C97.0089 54.8219 97.0869 55.0169 97.243 55.173C97.3991 55.3291 97.5941 55.4071 97.8282 55.4071C99.3733 55.4071 101.636 55.2901 104.617 55.056V57.9822ZM112.099 44.6385C110.07 44.6385 109.056 43.624 109.056 41.5952V40.8929H112.099V41.4781C112.099 41.7122 112.177 41.9073 112.333 42.0634C112.489 42.2194 112.684 42.2975 112.919 42.2975H113.621C113.855 42.2975 114.05 42.2194 114.206 42.0634C114.362 41.9073 114.44 41.7122 114.44 41.4781V40.8929H117.484V41.5952C117.484 43.624 116.469 44.6385 114.44 44.6385H112.099ZM115.26 45.809H119.59V58.2163H115.494V51.4274L111.514 58.2163H107.183V45.809H111.28V52.5979L115.26 45.809Z" fill="white"/>
<defs>
<radialGradient id="paint0_radial" cx="0" cy="0" r="1" gradientUnits="userSpaceOnUse" gradientTransform="translate(47.8021 90.4671) rotate(180) scale(49.4669 45.2251)">
<stop stop-color="#3BBC33"/>
<stop offset="1" stop-color="#2C7927"/>
</radialGradient>
<linearGradient id="paint1_linear" x1="166.757" y1="72.5028" x2="-23.1493" y2="37.7171" gradientUnits="userSpaceOnUse">
<stop stop-color="#18F10A"/>
<stop offset="0.11" stop-color="#3BA934"/>
<stop offset="0.24" stop-color="#3BBC33"/>
<stop offset="0.84" stop-color="#31CD27"/>
<stop offset="1" stop-color="#0FFF00"/>
</linearGradient>
<linearGradient id="paint2_linear" x1="224.607" y1="-17.3137" x2="30.0551" y2="143.609" gradientUnits="userSpaceOnUse">
<stop stop-color="#33CC2A"/>
<stop offset="0.1" stop-color="#3A8D35"/>
<stop offset="0.24" stop-color="#3BBC33"/>
<stop offset="0.84" stop-color="#3BBC33"/>
<stop offset="1" stop-color="#31D027"/>
</linearGradient>
</defs>
</svg>
