<svg width="236" height="145" viewBox="0 0 236 145" fill="none" xmlns="http://www.w3.org/2000/svg">
<path d="M32.1408 144.497C32.1408 144.497 53.7875 88.6953 127.642 88.6953H23.3214L32.1408 144.497Z" fill="url(#paint0_radial)"/>
<path d="M218.643 2.23315C227.402 7.88059 230.195 19.9846 226.95 31.0689C222.511 46.1494 217.478 61.717 213.043 71.6908C208.915 80.9628 204.776 86.8703 187.323 87.6506C185.48 87.6836 183.506 87.696 181.377 87.696H80.5065C41.4872 87.696 32.7331 125.886 30.8748 139.08C31.4474 141.615 31.8441 143.353 32.0149 144.092C32.0953 144.356 32.1405 144.505 32.1405 144.505C32.1405 144.505 35.0836 88.695 82.2492 88.695H183.1C185.229 88.695 187.203 88.695 189.046 88.6496C206.499 87.8694 210.643 81.9618 214.766 72.6898C219.201 62.716 224.233 47.1484 228.673 32.0679C232.159 20.2859 228.764 7.3274 218.643 2.23315Z" fill="url(#paint1_linear)"/>
<path d="M209.323 0H33.5375C23.0959 0.115591 4.68866 3.90118 7.7423 27.5601C10.7256 50.6783 30.509 137.454 32.0257 144.092C32.1061 144.356 32.1513 144.505 32.1513 144.505C32.1513 144.505 35.0844 88.6952 82.25 88.6952H183.1C185.23 88.6952 187.204 88.6952 189.047 88.6498C206.5 87.8696 210.643 81.9621 214.767 72.69C219.202 62.7162 224.234 47.1486 228.674 32.0682C233.069 17.2024 226.514 0.474748 209.323 0Z" fill="url(#paint2_linear)"/>
<path d="M34.3582 38H29.3182V22.32H23.4382V18.4H40.2382V22.32H34.3582V38ZM47.6615 26.38C46.9148 26.38 46.5415 26.7533 46.5415 27.5V29.04H51.3015V27.5C51.3015 26.7533 50.9282 26.38 50.1815 26.38H47.6615ZM55.6415 37.72C52.0388 38.0933 48.7722 38.28 45.8415 38.28C44.5722 38.28 43.5548 37.8973 42.7895 37.132C42.0242 36.3667 41.6415 35.3493 41.6415 34.08V27.36C41.6415 25.96 42.0335 24.868 42.8175 24.084C43.6202 23.2813 44.7215 22.88 46.1215 22.88H51.7215C53.1215 22.88 54.2135 23.2813 54.9975 24.084C55.8002 24.868 56.2015 25.96 56.2015 27.36V32.54H46.5415V33.66C46.5415 33.94 46.6348 34.1733 46.8215 34.36C47.0082 34.5467 47.2415 34.64 47.5215 34.64C49.3695 34.64 52.0762 34.5 55.6415 34.22V37.72ZM70.0505 35.48H66.4105L63.6105 30.44V38H58.7105V23.16H63.8905L68.2305 31L72.5705 23.16H77.7505V38H72.8505V30.44L70.0505 35.48ZM95.3982 23.16V38H90.4982V26.94H85.4582V38H80.5582V23.16H95.3982ZM103.935 26.38C103.188 26.38 102.815 26.7533 102.815 27.5V29.04H107.575V27.5C107.575 26.7533 107.202 26.38 106.455 26.38H103.935ZM111.915 37.72C108.312 38.0933 105.046 38.28 102.115 38.28C100.846 38.28 99.8283 37.8973 99.0629 37.132C98.2976 36.3667 97.9149 35.3493 97.9149 34.08V27.36C97.9149 25.96 98.3069 24.868 99.0909 24.084C99.8936 23.2813 100.995 22.88 102.395 22.88H107.995C109.395 22.88 110.487 23.2813 111.271 24.084C112.074 24.868 112.475 25.96 112.475 27.36V32.54H102.815V33.66C102.815 33.94 102.908 34.1733 103.095 34.36C103.282 34.5467 103.515 34.64 103.795 34.64C105.643 34.64 108.35 34.5 111.915 34.22V37.72ZM123.244 26.94C122.255 26.94 121.135 27.1267 119.884 27.5V34.22H124.084C124.831 34.22 125.204 33.8467 125.204 33.1V27.92C125.204 27.64 125.111 27.4067 124.924 27.22C124.737 27.0333 124.504 26.94 124.224 26.94H123.244ZM119.884 38V42.76H114.984V23.16H119.324L119.604 24.56C120.481 23.9813 121.377 23.5613 122.292 23.3C123.225 23.02 124.009 22.88 124.644 22.88H125.904C127.173 22.88 128.191 23.2627 128.956 24.028C129.721 24.7933 130.104 25.8107 130.104 27.08V33.52C130.104 34.92 129.703 36.0213 128.9 36.824C128.116 37.608 127.024 38 125.624 38H119.884ZM138.501 34.36C139.49 34.36 140.61 34.1733 141.861 33.8V32.12H137.801C137.521 32.12 137.287 32.2133 137.101 32.4C136.914 32.5867 136.821 32.82 136.821 33.1V33.38C136.821 33.66 136.914 33.8933 137.101 34.08C137.287 34.2667 137.521 34.36 137.801 34.36H138.501ZM133.321 23.44C136.737 23.0667 139.817 22.88 142.561 22.88C143.83 22.88 144.847 23.2627 145.613 24.028C146.378 24.7933 146.761 25.8107 146.761 27.08V38H142.421L142.141 36.6C141.263 37.1787 140.358 37.608 139.425 37.888C138.51 38.1493 137.735 38.28 137.101 38.28H136.121C134.851 38.28 133.834 37.8973 133.069 37.132C132.303 36.3667 131.921 35.3493 131.921 34.08V32.82C131.921 31.5507 132.303 30.5333 133.069 29.768C133.834 29.0027 134.851 28.62 136.121 28.62H141.861V27.5C141.861 27.22 141.767 26.9867 141.581 26.8C141.394 26.6133 141.161 26.52 140.881 26.52C139.667 26.52 138.323 26.576 136.849 26.688C135.393 26.8 134.217 26.884 133.321 26.94V23.44ZM157.673 26.94V38H152.773V26.94H148.153V23.16H162.293V26.94H157.673ZM167.904 43.04C166.915 43.04 165.701 42.9467 164.264 42.76V39.12H166.784C167.493 39.12 167.951 38.924 168.156 38.532C168.38 38.14 168.343 37.5893 168.044 36.88L162.304 23.16H167.484L170.984 32.68L173.924 23.16H179.104L173.504 38.56C172.963 40.0347 172.263 41.1453 171.404 41.892C170.545 42.6573 169.379 43.04 167.904 43.04ZM188.213 26.94C187.223 26.94 186.103 27.1267 184.853 27.5V34.22H189.053C189.799 34.22 190.173 33.8467 190.173 33.1V27.92C190.173 27.64 190.079 27.4067 189.893 27.22C189.706 27.0333 189.473 26.94 189.193 26.94H188.213ZM184.853 38V42.76H179.953V23.16H184.293L184.573 24.56C185.45 23.9813 186.346 23.5613 187.261 23.3C188.194 23.02 188.978 22.88 189.613 22.88H190.873C192.142 22.88 193.159 23.2627 193.925 24.028C194.69 24.7933 195.073 25.8107 195.073 27.08V33.52C195.073 34.92 194.671 36.0213 193.869 36.824C193.085 37.608 191.993 38 190.593 38H184.853ZM203.469 34.36C204.459 34.36 205.579 34.1733 206.829 33.8V32.12H202.769C202.489 32.12 202.256 32.2133 202.069 32.4C201.883 32.5867 201.789 32.82 201.789 33.1V33.38C201.789 33.66 201.883 33.8933 202.069 34.08C202.256 34.2667 202.489 34.36 202.769 34.36H203.469ZM198.289 23.44C201.705 23.0667 204.785 22.88 207.529 22.88C208.799 22.88 209.816 23.2627 210.581 24.028C211.347 24.7933 211.729 25.8107 211.729 27.08V38H207.389L207.109 36.6C206.232 37.1787 205.327 37.608 204.393 37.888C203.479 38.1493 202.704 38.28 202.069 38.28H201.089C199.82 38.28 198.803 37.8973 198.037 37.132C197.272 36.3667 196.889 35.3493 196.889 34.08V32.82C196.889 31.5507 197.272 30.5333 198.037 29.768C198.803 29.0027 199.82 28.62 201.089 28.62H206.829V27.5C206.829 27.22 206.736 26.9867 206.549 26.8C206.363 26.6133 206.129 26.52 205.849 26.52C204.636 26.52 203.292 26.576 201.817 26.688C200.361 26.8 199.185 26.884 198.289 26.94V23.44ZM55.4326 68H44.7926V53.16H54.5926C55.8432 53.16 56.8512 53.5333 57.6166 54.28C58.4006 55.008 58.7926 55.8293 58.7926 56.744C58.7926 57.6587 58.5966 58.4053 58.2046 58.984C57.8126 59.5627 57.2619 59.9547 56.5526 60.16C57.3926 60.3093 58.1112 60.72 58.7086 61.392C59.3246 62.064 59.6326 62.96 59.6326 64.08C59.6326 65.2 59.2406 66.1333 58.4566 66.88C57.6912 67.6267 56.6832 68 55.4326 68ZM54.7326 63.24C54.7326 62.96 54.6392 62.7267 54.4526 62.54C54.2659 62.3533 54.0326 62.26 53.7526 62.26H49.6926V64.64H53.7526C54.0326 64.64 54.2659 64.5467 54.4526 64.36C54.6392 64.1733 54.7326 63.94 54.7326 63.66V63.24ZM53.8926 57.5C53.8926 57.22 53.7992 56.9867 53.6126 56.8C53.4259 56.6133 53.1926 56.52 52.9126 56.52H49.6926V59.04H52.9126C53.1926 59.04 53.4259 58.9467 53.6126 58.76C53.7992 58.5733 53.8926 58.34 53.8926 58.06V57.5ZM76.5562 61C76.4628 62.3067 76.0895 63.38 75.4362 64.22H80.3362V56.94H76.8362L76.5562 61ZM85.2362 53.16V64.22H87.3362V71.36H82.6882L82.4082 68H73.7842L73.5042 71.36H68.8562V64.22H70.6762C71.4228 63.3427 71.8428 62.3627 71.9362 61.28L72.4962 53.16H85.2362ZM104.428 63.8C104.428 65.2 104.027 66.3013 103.224 67.104C102.44 67.888 101.348 68.28 99.9482 68.28H93.5082C92.1082 68.28 91.0069 67.888 90.2042 67.104C89.4202 66.3013 89.0282 65.2 89.0282 63.8V57.36C89.0282 55.96 89.4202 54.868 90.2042 54.084C91.0069 53.2813 92.1082 52.88 93.5082 52.88H99.9482C101.348 52.88 102.44 53.2813 103.224 54.084C104.027 54.868 104.428 55.96 104.428 57.36V63.8ZM99.5282 57.78C99.5282 57.0333 99.1549 56.66 98.4082 56.66H95.0482C94.3015 56.66 93.9282 57.0333 93.9282 57.78V63.38C93.9282 64.1267 94.3015 64.5 95.0482 64.5H98.4082C99.1549 64.5 99.5282 64.1267 99.5282 63.38V57.78ZM118.285 65.48H114.645L111.845 60.44V68H106.945V53.16H112.125L116.465 61L120.805 53.16H125.985V68H121.085V60.44L118.285 65.48ZM134.533 56.38C133.786 56.38 133.413 56.7533 133.413 57.5V59.04H138.173V57.5C138.173 56.7533 137.799 56.38 137.053 56.38H134.533ZM142.513 67.72C138.91 68.0933 135.643 68.28 132.713 68.28C131.443 68.28 130.426 67.8973 129.661 67.132C128.895 66.3667 128.513 65.3493 128.513 64.08V57.36C128.513 55.96 128.905 54.868 129.689 54.084C130.491 53.2813 131.593 52.88 132.993 52.88H138.593C139.993 52.88 141.085 53.2813 141.869 54.084C142.671 54.868 143.073 55.96 143.073 57.36V62.54H133.413V63.66C133.413 63.94 133.506 64.1733 133.693 64.36C133.879 64.5467 134.113 64.64 134.393 64.64C136.241 64.64 138.947 64.5 142.513 64.22V67.72ZM162.096 56.24H166.856V60.16H162.096V64.92H158.176V60.16H153.416V56.24H158.176V51.48H162.096V56.24ZM183.377 54.56C183.377 56.1467 182.705 57.5187 181.361 58.676C180.951 59.0307 180.503 59.3853 180.017 59.74L173.997 64.08H183.377V68H168.257V62.68L178.337 55.4V54C178.337 52.88 177.777 52.32 176.657 52.32H168.817V48.4H177.777C179.737 48.4 181.156 48.848 182.033 49.744C182.929 50.6213 183.377 52.04 183.377 54V54.56ZM195.133 68.28C192.016 68.28 188.562 68.0933 184.773 67.72V63.94C188.898 64.22 191.978 64.36 194.013 64.36C194.442 64.36 194.778 64.2387 195.021 63.996C195.282 63.7347 195.413 63.3893 195.413 62.96V61.56C195.413 60.44 194.853 59.88 193.733 59.88H185.613V48.4H199.053V52.32H190.653V55.96H195.133C196.962 55.96 198.306 56.38 199.165 57.22C200.024 58.0413 200.453 59.3013 200.453 61V62.96C200.453 64.7893 200.024 66.1333 199.165 66.992C198.306 67.8507 196.962 68.28 195.133 68.28Z" fill="white"/>
<defs>
<radialGradient id="paint0_radial" cx="0" cy="0" r="1" gradientUnits="userSpaceOnUse" gradientTransform="translate(71.4413 108.957) rotate(180) scale(66.2659 54.468)">
<stop stop-color="#3BBC33"/>
<stop offset="1" stop-color="#2C7927"/>
</radialGradient>
<linearGradient id="paint1_linear" x1="308.289" y1="-20.852" x2="70.5701" y2="197.853" gradientUnits="userSpaceOnUse">
<stop stop-color="#33CC2A"/>
<stop offset="0.1" stop-color="#3A8D35"/>
<stop offset="0.24" stop-color="#3BBC33"/>
<stop offset="0.84" stop-color="#3BBC33"/>
<stop offset="1" stop-color="#31D027"/>
</linearGradient>
<linearGradient id="paint2_linear" x1="230.793" y1="87.3205" x2="-21.6622" y2="35.8855" gradientUnits="userSpaceOnUse">
<stop stop-color="#18F10A"/>
<stop offset="0.11" stop-color="#3BA934"/>
<stop offset="0.24" stop-color="#3BBC33"/>
<stop offset="0.84" stop-color="#31CD27"/>
<stop offset="1" stop-color="#0FFF00"/>
</linearGradient>
</defs>
</svg>
