<svg width="140" height="133" viewBox="0 0 140 133" fill="none" xmlns="http://www.w3.org/2000/svg">
<path d="M15.4514 132.389C15.4514 132.389 28.9731 81.2627 75.1072 81.2627H9.94226L15.4514 132.389Z" fill="url(#paint0_radial)"/>
<path d="M126.13 0H16.3239C9.80145 0.105906 -1.69676 3.57433 0.210717 25.2511C2.07427 46.4323 14.4321 125.938 15.3796 132.02C15.4298 132.262 15.458 132.398 15.458 132.398C15.458 132.398 17.2902 81.2641 46.7526 81.2641H109.75C111.08 81.2641 112.313 81.2641 113.464 81.2225C124.366 80.5076 126.955 75.0951 129.53 66.5999C132.301 57.4617 135.444 43.1984 138.218 29.3814C140.963 15.7611 136.868 0.434972 126.13 0Z" fill="url(#paint1_linear)"/>
<path d="M131.952 2.0459C137.423 7.22017 139.168 18.3101 137.141 28.4657C134.368 42.2827 131.224 56.546 128.454 65.6842C125.875 74.1794 123.29 79.5919 112.388 80.3068C111.236 80.3371 110.003 80.3484 108.673 80.3484H45.6635C21.2898 80.3484 15.8215 115.339 14.6607 127.428C15.0184 129.75 15.2662 131.342 15.3729 132.019C15.4231 132.261 15.4513 132.398 15.4513 132.398C15.4513 132.398 17.2898 81.2637 46.7522 81.2637H109.749C111.079 81.2637 112.312 81.2637 113.464 81.2221C124.366 80.5073 126.954 75.0947 129.53 66.5995C132.3 57.4613 135.444 43.198 138.217 29.381C140.394 18.5862 138.274 6.71334 131.952 2.0459Z" fill="url(#paint2_linear)"/>
<path d="M72.254 31.4311C74.2284 31.4311 76.1219 32.2154 77.5179 33.6115C78.914 35.0076 79.6983 36.9011 79.6983 38.8754C79.6983 39.5336 79.9598 40.1647 80.4251 40.6301C80.8905 41.0954 81.5216 41.3569 82.1798 41.3569C82.8379 41.3569 83.469 41.0954 83.9344 40.6301C84.3998 40.1647 84.6612 39.5336 84.6612 38.8754C84.6612 35.5848 83.354 32.429 81.0272 30.1022C78.7004 27.7754 75.5446 26.4683 72.254 26.4683C71.5959 26.4683 70.9647 26.7297 70.4994 27.1951C70.034 27.6604 69.7726 28.2916 69.7726 28.9497C69.7726 29.6078 70.034 30.239 70.4994 30.7043C70.9647 31.1697 71.5959 31.4311 72.254 31.4311Z" fill="white"/>
<path d="M72.254 21.5053C76.8609 21.5053 81.279 23.3354 84.5365 26.5929C87.794 29.8504 89.6241 34.2686 89.6241 38.8754C89.6241 39.5335 89.8855 40.1647 90.3509 40.63C90.8162 41.0954 91.4474 41.3568 92.1055 41.3568C92.7636 41.3568 93.3948 41.0954 93.8601 40.63C94.3255 40.1647 94.5869 39.5335 94.5869 38.8754C94.5869 32.9523 92.234 27.2719 88.0458 23.0836C83.8575 18.8954 78.1771 16.5425 72.254 16.5425C71.5959 16.5425 70.9648 16.8039 70.4994 17.2693C70.034 17.7346 69.7726 18.3658 69.7726 19.0239C69.7726 19.682 70.034 20.3132 70.4994 20.7786C70.9648 21.2439 71.5959 21.5053 72.254 21.5053ZM93.9666 51.0592C93.8301 50.6609 93.5945 50.3038 93.2819 50.0216C92.9694 49.7395 92.5901 49.5415 92.18 49.4463L77.2913 46.0467C76.8872 45.9551 76.4666 45.9661 76.0678 46.0788C75.669 46.1915 75.3048 46.4023 75.0084 46.6919C74.661 47.0145 74.6362 47.0393 73.0233 50.1163C67.6713 47.6501 63.3829 43.3441 60.9387 37.9821C64.0901 36.394 64.1149 36.394 64.4375 36.0217C64.7271 35.7253 64.9379 35.3611 65.0506 34.9624C65.1633 34.5636 65.1743 34.143 65.0827 33.7388L61.6831 19.0239C61.5879 18.6137 61.39 18.2345 61.1078 17.9219C60.8256 17.6094 60.4685 17.3738 60.0702 17.2373C59.4907 17.0303 58.8923 16.8807 58.2836 16.7906C57.6564 16.6452 57.0164 16.5621 56.3728 16.5425C53.3455 16.5425 50.4422 17.7451 48.3015 19.8857C46.1609 22.0264 44.9583 24.9297 44.9583 27.9571C44.9714 38.0881 49.0017 47.8003 56.1654 54.964C63.3291 62.1277 73.0414 66.158 83.1723 66.1712C84.6713 66.1712 86.1556 65.8759 87.5405 65.3023C88.9254 64.7286 90.1837 63.8879 91.2437 62.8279C92.3036 61.768 93.1444 60.5096 93.7181 59.1247C94.2917 57.7399 94.5869 56.2556 94.5869 54.7566C94.5877 54.125 94.5379 53.4943 94.4381 52.8707C94.3338 52.2543 94.176 51.6482 93.9666 51.0592Z" fill="white"/>
<defs>
<radialGradient id="paint0_radial" cx="0" cy="0" r="1" gradientUnits="userSpaceOnUse" gradientTransform="translate(40.0008 99.8265) rotate(180) scale(41.3936 49.9045)">
<stop stop-color="#3BBC33"/>
<stop offset="1" stop-color="#2C7927"/>
</radialGradient>
<linearGradient id="paint1_linear" x1="139.541" y1="80.0046" x2="-21.594" y2="57.622" gradientUnits="userSpaceOnUse">
<stop stop-color="#18F10A"/>
<stop offset="0.11" stop-color="#3BA934"/>
<stop offset="0.24" stop-color="#3BBC33"/>
<stop offset="0.84" stop-color="#31CD27"/>
<stop offset="1" stop-color="#0FFF00"/>
</linearGradient>
<linearGradient id="paint2_linear" x1="187.95" y1="-19.1051" x2="-8.81644" y2="104.316" gradientUnits="userSpaceOnUse">
<stop stop-color="#33CC2A"/>
<stop offset="0.1" stop-color="#3A8D35"/>
<stop offset="0.24" stop-color="#3BBC33"/>
<stop offset="0.84" stop-color="#3BBC33"/>
<stop offset="1" stop-color="#31D027"/>
</linearGradient>
</defs>
</svg>
