<svg width="71" height="71" viewBox="0 0 71 71" fill="none" xmlns="http://www.w3.org/2000/svg">
<circle cx="35.4681" cy="35.8296" r="34.3238" fill="white" stroke="#8BC34A" stroke-width="1.35249"/>
<path d="M57.9999 39V34L50.9999 31.5C50.4999 30.5 50.4999 30 49.9999 29L52.9999 22.5L49.4999 19L42.9999 22C41.9999 21.5 41.4999 21.5 40.4999 21L37.9999 14H32.9999L30.4999 21C29.4999 21.5 28.9999 21.5 27.9999 22L21.4999 19L17.9999 22.5L20.9999 29C20.4999 30 20.4999 30.5 19.9999 31.5L12.9999 34V39L19.9999 41.5C20.4999 42.5 20.4999 43 20.9999 44L17.9999 50.5L21.4999 54L27.9999 51C28.9999 51.5 29.4999 52 30.4999 52L32.9999 59H37.9999L40.4999 52C41.4999 51.5 41.9999 51.5 42.9999 51L49.4999 54L52.9999 50.5L49.9999 44C50.4999 43 50.9999 42.5 50.9999 41.5L57.9999 39ZM35.4999 44C31.4999 44 27.9999 40.5 27.9999 36.5C27.9999 32.5 31.4999 29 35.4999 29C39.4999 29 42.9999 32.5 42.9999 36.5C42.9999 40.5 39.4999 44 35.4999 44Z" fill="#3FAF38"/>
</svg>
