<svg width="71" height="71" viewBox="0 0 71 71" fill="none" xmlns="http://www.w3.org/2000/svg">
<circle cx="35.4684" cy="35.8296" r="34.3238" fill="white" stroke="#8BC34A" stroke-width="1.35249"/>
<path fill-rule="evenodd" clip-rule="evenodd" d="M35.2412 13C33.2483 13 29.9127 13.7496 26.7728 14.5805C23.9721 15.3325 21.1897 16.1505 18.4278 17.034C17.6392 17.2824 16.9371 17.7489 16.4028 18.3797C15.8684 19.0105 15.5236 19.7798 15.4083 20.5984C13.6833 33.2333 17.6842 42.5959 22.537 48.7914C24.6029 51.45 27.0556 53.784 29.8133 55.7155C30.9302 56.4862 31.9658 57.0732 32.8449 57.4796C33.6577 57.8529 34.5247 58.157 35.2412 58.157C35.9577 58.157 36.8277 57.8529 37.6375 57.4796C38.5166 57.0732 39.5522 56.4862 40.6691 55.7155C43.4279 53.7842 45.8816 51.4503 47.9484 48.7914C52.7982 42.5959 56.7991 33.2333 55.0741 20.5984C54.9588 19.7798 54.614 19.0105 54.0796 18.3797C53.5453 17.7489 52.8432 17.2824 52.0546 17.034C49.2927 16.1505 46.5103 15.3324 43.7096 14.5805C40.5697 13.7496 37.2371 13 35.2412 13ZM43.8331 32.1285C44.1157 31.8458 44.2745 31.4625 44.2745 31.0628C44.2745 30.6631 44.1157 30.2797 43.8331 29.9971C43.5504 29.7144 43.1671 29.5557 42.7674 29.5557C42.3676 29.5557 41.9843 29.7144 41.7017 29.9971L33.736 37.9658L30.286 34.5128C30.146 34.3728 29.9799 34.2618 29.797 34.1861C29.6142 34.1103 29.4182 34.0713 29.2203 34.0713C29.0224 34.0713 28.8264 34.1103 28.6435 34.1861C28.4607 34.2618 28.2945 34.3728 28.1546 34.5128C28.0146 34.6527 27.9036 34.8189 27.8279 35.0017C27.7521 35.1846 27.7131 35.3806 27.7131 35.5785C27.7131 35.7764 27.7521 35.9724 27.8279 36.1552C27.9036 36.3381 28.0146 36.5042 28.1546 36.6442L32.6703 41.1599C32.8101 41.3001 32.9762 41.4113 33.1591 41.4872C33.3419 41.563 33.538 41.6021 33.736 41.6021C33.934 41.6021 34.13 41.563 34.3129 41.4872C34.4957 41.4113 34.6619 41.3001 34.8017 41.1599L43.8331 32.1285Z" fill="#3FAF38"/>
</svg>
