<svg width="70" height="70" viewBox="0 0 70 70" fill="none" xmlns="http://www.w3.org/2000/svg">
<circle cx="35" cy="35" r="34.325" fill="white" stroke="#8BC34A" stroke-width="1.35"/>
<path d="M26.0774 30.3635V18.8979C26.0774 16.5832 26.9969 14.3633 28.6337 12.7266C30.2704 11.0899 32.4902 10.1704 34.8049 10.1704C37.1196 10.1704 39.3394 11.0899 40.9761 12.7266C42.6128 14.3633 43.5323 16.5832 43.5323 18.8979V30.3635C46.2007 32.2216 48.2065 34.8827 49.2577 37.9596C50.3089 41.0365 50.3507 44.3687 49.377 47.471C48.4033 50.5733 46.465 53.2839 43.844 55.2083C41.2231 57.1327 38.0564 58.1704 34.8049 58.1704C31.5533 58.1704 28.3867 57.1327 25.7657 55.2083C23.1448 53.2839 21.2064 50.5733 20.2327 47.471C19.259 44.3687 19.3009 41.0365 20.3521 37.9596C21.4033 34.8827 23.4091 32.2216 26.0774 30.3635ZM26.0774 42.8983C26.0774 45.213 26.9969 47.4329 28.6337 49.0696C30.2704 50.7063 32.4902 51.6258 34.8049 51.6258C37.1196 51.6258 39.3394 50.7063 40.9761 49.0696C42.6128 47.4329 43.5323 45.213 43.5323 42.8983H26.0774Z" fill="#3FAF38"/>
</svg>
