<svg width="26" height="27" viewBox="0 0 26 27" fill="none" xmlns="http://www.w3.org/2000/svg">
<path d="M16.8619 0H9.12079C2.05659 0 0.381958 1.75703 0.381958 9.16879V17.2908C0.381958 24.7026 2.05659 26.4596 9.12079 26.4596H16.8619C23.9261 26.4596 25.6008 24.7026 25.6008 17.2908V9.16879C25.6008 1.75703 23.9096 0 16.8619 0ZM20.7408 18.875H18.9101C18.2166 18.875 18.003 18.2979 16.7555 16.9716C15.672 15.8695 15.192 15.7231 14.9249 15.7231C14.5474 15.7231 14.4402 15.8347 14.4402 16.378V18.1135C14.4402 18.579 14.3007 18.8585 13.1265 18.8585C11.1847 18.8585 9.03016 17.6265 7.51944 15.3312C5.24115 11.9676 4.6178 9.44826 4.6178 8.92735C4.6178 8.64706 4.72418 8.38495 5.23721 8.38495H7.07182C7.53599 8.38495 7.71252 8.60902 7.89299 9.12993C8.80005 11.8775 10.3108 14.2844 10.9341 14.2844C11.1642 14.2844 11.2706 14.1728 11.2706 13.5568V10.7191C11.2005 9.41023 10.544 9.29778 10.544 8.83309C10.544 8.60902 10.7206 8.38495 11.0035 8.38495H13.8886C14.2787 8.38495 14.4221 8.60902 14.4221 9.09107V12.9193C14.4221 13.3327 14.5986 13.4791 14.705 13.4791C14.9351 13.4791 15.1321 13.3327 15.5585 12.8846C16.8761 11.3343 17.8202 8.94389 17.8202 8.94389C17.9432 8.66359 18.1567 8.40149 18.6209 8.40149H20.4555C21.0056 8.40149 21.1285 8.69832 21.0056 9.11174C20.7754 10.2313 18.5303 13.556 18.5303 13.556C18.3372 13.8917 18.2631 14.038 18.5303 14.4126C18.7273 14.6929 19.368 15.2742 19.7943 15.7951C20.5784 16.7294 21.1813 17.5132 21.3421 18.0556C21.5225 18.5939 21.2562 18.8742 20.7384 18.8742L20.7408 18.875Z" fill="#1B6798"/>
</svg>
