<svg width="71" height="71" fill="none" xmlns="http://www.w3.org/2000/svg"><circle cx="35.468" cy="35.83" r="34.324" fill="#fff" stroke="#8BC34A" stroke-width="1.352"/><path d="M35.597 57c-2.844 0-5.564-.554-8.162-1.661-2.598-1.108-4.833-2.598-6.706-4.47-1.873-1.874-3.363-4.11-4.47-6.707A20.602 20.602 0 0114.596 36c0-2.844.554-5.564 1.661-8.162 1.108-2.598 2.598-4.833 4.471-6.706 1.873-1.873 4.108-3.363 6.706-4.47A20.602 20.602 0 0135.597 15c2.844 0 5.565.554 8.162 1.661 2.598 1.108 4.833 2.598 6.706 4.47 1.873 1.874 3.364 4.11 4.471 6.707A20.6 20.6 0 0156.597 36a20.6 20.6 0 01-1.661 8.162c-1.107 2.598-2.598 4.833-4.47 6.706-1.874 1.873-4.11 3.363-6.707 4.47A20.602 20.602 0 0135.597 57zM22.595 22.998L35.597 36V17.625c-2.488 0-4.853.472-7.096 1.415a18.31 18.31 0 00-5.906 3.958z" fill="#3FAF38"/></svg>