<svg width="71" height="71" fill="none" xmlns="http://www.w3.org/2000/svg"><circle cx="35.468" cy="35.83" r="34.325" fill="#fff" stroke="#8BC34A" stroke-width="1.35"/><path d="M27.913 56c-8.605-4.85-10.87-9.44-9.575-15.71.956-4.63 4.087-8.396 4.388-13.016 1.337 2.434 1.896 4.189 2.046 6.732C29.026 28.794 31.837 21.58 32.003 14c0 0 11.08 6.51 11.807 16.344.954-2.027 1.434-5.246.48-7.332C47.153 25.098 63.9 43.62 42.023 56c4.113-8.01 1.061-18.816-6.081-23.808.477 2.147-.36 10.151-3.519 13.668.876-5.877-.833-8.362-.833-8.362s-.586 3.292-2.861 6.617c-2.078 3.037-3.518 6.26-.815 11.885z" fill="#3FAF38"/></svg>