<svg width="288" height="64" fill="none" xmlns="http://www.w3.org/2000/svg"><path d="M88.418 49V22.014h24.738v4.047H92.503v7.384h16.605v4.086H92.503v7.421h20.653V49H88.418zm33.307 0c-1.349 0-2.499-.475-3.448-1.424-.95-.95-1.425-2.1-1.425-3.449V32.133c0-1.349.475-2.498 1.425-3.448.949-.95 2.099-1.424 3.448-1.424h17.166v4.048h-16.604c-.55 0-.924.1-1.124.3-.175.175-.263.537-.263 1.087v10.87c0 .549.088.924.263 1.124.2.175.574.262 1.124.262h16.679V49h-17.241zm25.915 0c-1.35 0-2.499-.475-3.449-1.424-.949-.95-1.424-2.1-1.424-3.449V32.133c0-1.349.475-2.498 1.424-3.448.95-.95 2.099-1.424 3.449-1.424h12.368c1.35 0 2.499.475 3.449 1.424.949.95 1.424 2.1 1.424 3.448v11.994c0 1.35-.475 2.5-1.424 3.449-.95.95-2.099 1.424-3.449 1.424H147.64zm.562-4.048h11.244c.55 0 .912-.087 1.087-.262.175-.2.262-.575.262-1.125v-10.87c0-.549-.087-.911-.262-1.086-.175-.2-.537-.3-1.087-.3h-11.244c-.55 0-.925.1-1.125.3-.175.175-.262.537-.262 1.087v10.87c0 .549.087.924.262 1.124.2.175.575.262 1.125.262z" fill="#fff"/><path d="M179.026 49V26.061h-11.47v-4.047h26.987v4.047h-11.432V49h-4.085zm23.005 0c-1.349 0-2.499-.475-3.448-1.424-.95-.95-1.424-2.1-1.424-3.449V32.133c0-1.349.474-2.498 1.424-3.448.949-.95 2.099-1.424 3.448-1.424H214.4c1.349 0 2.499.475 3.448 1.424.95.95 1.425 2.1 1.425 3.448v8.021h-18.066v3.411c0 .55.087.925.262 1.125.2.175.575.262 1.124.262h16.68V49h-17.242zm-.824-12.631h13.98v-3.673c0-.55-.087-.912-.262-1.087-.175-.2-.537-.3-1.087-.3h-11.245c-.549 0-.924.1-1.124.3-.175.175-.262.537-.262 1.087v3.673zm22.015 21.252V27.26h17.242c1.349 0 2.499.475 3.448 1.424.95.95 1.424 2.1 1.424 3.448v11.994c0 1.35-.474 2.5-1.424 3.449-.949.95-2.099 1.424-3.448 1.424H227.27v8.62h-4.048zm5.435-12.669h11.245c.549 0 .912-.087 1.087-.262.199-.2.299-.575.299-1.125v-10.87c0-.549-.1-.911-.299-1.086-.175-.2-.538-.3-1.087-.3h-11.245c-.55 0-.924.1-1.124.3-.175.175-.263.537-.263 1.087v10.87c0 .549.088.924.263 1.124.2.175.574.262 1.124.262zM252.91 49c-1.349 0-2.499-.475-3.448-1.424-.95-.95-1.425-2.1-1.425-3.449V20.14h4.048v23.426c0 .55.088.925.263 1.125.2.175.574.262 1.124.262h3.486V49h-4.048zm11.675 0c-1.349 0-2.498-.475-3.448-1.424-.95-.95-1.424-2.1-1.424-3.449V32.133c0-1.349.474-2.498 1.424-3.448.95-.95 2.099-1.424 3.448-1.424h12.369c1.349 0 2.499.475 3.448 1.424.95.95 1.425 2.1 1.425 3.448v11.994c0 1.35-.475 2.5-1.425 3.449-.949.95-2.099 1.424-3.448 1.424h-12.369zm.563-4.048h11.244c.55 0 .912-.087 1.087-.262.175-.2.262-.575.262-1.125v-10.87c0-.549-.087-.911-.262-1.086-.175-.2-.537-.3-1.087-.3h-11.244c-.55 0-.925.1-1.125.3-.175.175-.262.537-.262 1.087v10.87c0 .549.087.924.262 1.124.2.175.575.262 1.125.262z" fill="#32CC28"/><ellipse cx="31.024" cy="31.781" rx="30.3" ry="31.625" fill="#3FAF38"/></svg>