<svg width="105" height="105" fill="none" xmlns="http://www.w3.org/2000/svg"><path d="M41.748 17.875l.344-.105.193-.305 9.903-15.652 9.983 15.601.195.304.345.104a35.857 35.857 0 0115.01 8.959l.001.001c14.104 14.031 14.162 36.837.13 50.94-14.03 14.104-36.837 14.162-50.94.13-14.103-14.03-14.161-36.837-.13-50.94h.001a35.858 35.858 0 0114.965-9.037zm1.594 5.211h-.001a30.402 30.402 0 00-12.696 7.673 30.569 30.569 0 1043.232-.112 30.368 30.368 0 00-12.735-7.603h-.001l-2.277-.685-5.825-9.103-.825-1.289-.818 1.293-5.778 9.132-2.276.694z" fill="#40AD2E" stroke="#fff" stroke-width="1.947"/><ellipse rx="25.496" ry="24.246" transform="scale(1 -1) rotate(45.146 89.384 36.891)" fill="#2CB724"/><mask id="a" fill="#fff"><path fill-rule="evenodd" clip-rule="evenodd" d="M65.677 52.659a1.445 1.445 0 00-1.445-1.445h-11.56a1.445 1.445 0 00-1.446 1.445v11.56a1.445 1.445 0 102.89 0V54.105h10.116a1.445 1.445 0 001.445-1.445z"/></mask><path d="M54.116 54.104h-2.92v-2.92h2.92v2.92zm8.64-1.445c0 .391.156.767.433 1.043l4.13-4.13a4.366 4.366 0 011.279 3.087h-5.841zm.433 1.043c.276.277.652.433 1.043.433v-5.842c1.158 0 2.268.46 3.087 1.279l-4.13 4.13zm1.043.433h-11.56v-5.842h11.56v5.842zm-11.56 0c.39 0 .766-.156 1.043-.433l-4.13-4.13a4.365 4.365 0 013.086-1.279v5.842zm1.043-.433c.276-.276.432-.652.432-1.043h-5.841c0-1.158.46-2.268 1.278-3.087l4.13 4.13zm.432-1.043v11.56h-5.841V52.66h5.84zm0 11.56c0-.39-.156-.766-.432-1.043l-4.13 4.13a4.365 4.365 0 01-1.28-3.086h5.842zm-.432-1.043a1.475 1.475 0 00-1.044-.432v5.841a4.366 4.366 0 01-3.087-1.278l4.13-4.13zm-1.044-.432c-.391 0-.766.156-1.043.432l4.13 4.13a4.366 4.366 0 01-3.087 1.28v-5.842zm-1.043.432a1.476 1.476 0 00-.432 1.044h5.841c0 1.157-.46 2.268-1.279 3.087l-4.13-4.13zm-.432 1.044V54.104h5.841V64.22h-5.841zm2.92-13.036h10.116v5.84H54.116v-5.84zm10.116 0c-.391 0-.767.155-1.043.432l4.13 4.13a4.365 4.365 0 01-3.087 1.279v-5.841zm-1.043.432a1.475 1.475 0 00-.432 1.043h5.84c0 1.158-.46 2.268-1.278 3.087l-4.13-4.13z" fill="#fff" mask="url(#a)"/><mask id="b" fill="#fff"><path fill-rule="evenodd" clip-rule="evenodd" d="M52.67 54.104a1.445 1.445 0 001.446-1.445v-11.56a1.445 1.445 0 10-2.89 0v10.115H41.11a1.445 1.445 0 100 2.89h11.56z"/></mask><path d="M51.225 51.214h2.921v2.92h-2.92v-2.92zm1.445-.03c-.39 0-.766.155-1.043.431l4.13 4.13a4.366 4.366 0 01-3.087 1.28v-5.842zm-1.043.431a1.476 1.476 0 00-.432 1.044h5.841c0 1.158-.46 2.268-1.279 3.087l-4.13-4.13zm-.432 1.044v-11.56h5.841v11.56h-5.841zm0-11.56c0 .39.155.766.432 1.042l4.13-4.13a4.366 4.366 0 011.28 3.087h-5.842zm.432 1.042c.277.277.652.433 1.043.433v-5.842a4.36 4.36 0 013.087 1.28l-4.13 4.13zm1.043.433c.392 0 .767-.156 1.044-.433l-4.13-4.13a4.366 4.366 0 013.086-1.279v5.842zm1.044-.433c.277-.276.432-.652.432-1.043h-5.841c0-1.158.46-2.268 1.279-3.087l4.13 4.13zm.432-1.043v10.116h-5.841V41.098h5.841zm-2.92 13.036H41.11v-5.84h10.115v5.84zm-10.116 0c.391 0 .767-.155 1.043-.432l-4.13-4.13a4.365 4.365 0 013.087-1.279v5.841zm1.043-.432c.277-.277.432-.652.432-1.043h-5.84c0-1.158.46-2.268 1.278-3.087l4.13 4.13zm.432-1.043c0-.392-.155-.767-.432-1.044l-4.13 4.13a4.366 4.366 0 01-1.279-3.086h5.841zm-.432-1.044a1.476 1.476 0 00-1.043-.432v5.841a4.365 4.365 0 01-3.087-1.278l4.13-4.13zm-1.043-.432h11.56v5.841H41.11v-5.84z" fill="#fff" mask="url(#b)"/></svg>