<svg width="197" height="142" fill="none" xmlns="http://www.w3.org/2000/svg"><path d="M21.785 141.63s19.065-54.695 84.111-54.695H14.017l7.768 54.695z" fill="url(#paint0_radial)"/><path d="M177.836 0H23.016C13.82.113-2.392 3.824.297 27.014c2.628 22.66 20.052 107.714 21.387 114.22l.111.405s2.583-54.703 44.124-54.703h88.823c1.875 0 3.614 0 5.237-.044 15.371-.765 19.021-6.555 22.652-15.644 3.906-9.776 8.339-25.035 12.249-39.816C198.75 16.862 192.978.465 177.836 0z" fill="url(#paint1_linear)"/><path d="M186.045 2.188c7.714 5.536 10.174 17.4 7.316 28.264-3.91 14.782-8.343 30.04-12.248 39.817-3.637 9.088-7.281 14.878-22.653 15.643-1.623.032-3.362.044-5.237.044h-88.84c-34.366 0-42.076 37.433-43.713 50.365.504 2.485.854 4.188 1.004 4.913l.11.404s2.593-54.703 44.133-54.703h88.823c1.875 0 3.614 0 5.237-.044 15.372-.765 19.021-6.555 22.653-15.643 3.906-9.776 8.338-25.035 12.248-39.817 3.07-11.548.08-24.25-8.833-29.243z" fill="url(#paint2_linear)"/><path d="M58.146 38.326c-3.128 0-6.592-.187-10.394-.562v-3.792c4.139.281 7.229.421 9.27.421.431 0 .768-.121 1.012-.365.262-.262.393-.608.393-1.04v-1.404c0-1.123-.562-1.685-1.686-1.685h-8.146V18.38h13.484v3.933H53.65v3.652h4.495c1.835 0 3.184.421 4.045 1.264.862.824 1.292 2.088 1.292 3.792v1.967c0 1.835-.43 3.184-1.292 4.045-.861.862-2.21 1.292-4.045 1.292zm9.673-.28v-15.31l-3.23 1.123-1.405-3.23 5.197-2.248h4.495v19.664h-5.057zm7.593-4.214h5.056v4.213h-5.056v-4.213zm18.547-10.114c0-1.123-.562-1.685-1.686-1.685h-3.09c-1.123 0-1.685.562-1.685 1.685v8.99c0 1.124.562 1.685 1.685 1.685h3.09c1.124 0 1.686-.561 1.686-1.685v-8.99zm5.056 8.99c0 1.966-.449 3.4-1.348 4.298-.88.88-2.303 1.32-4.27 1.32H88.06c-1.967 0-3.4-.44-4.299-1.32-.88-.899-1.32-2.332-1.32-4.298v-8.99c0-1.966.44-3.39 1.32-4.27.9-.899 2.332-1.348 4.299-1.348h5.337c1.966 0 3.39.45 4.27 1.348.899.88 1.349 2.304 1.349 4.27v8.99zm13.763-8.99c0-1.123-.561-1.685-1.685-1.685h-3.09c-1.124 0-1.686.562-1.686 1.685v8.99c0 1.124.562 1.685 1.686 1.685h3.09c1.124 0 1.685-.561 1.685-1.685v-8.99zm5.057 8.99c0 1.966-.449 3.4-1.348 4.298-.881.88-2.304 1.32-4.27 1.32h-5.338c-1.966 0-3.399-.44-4.298-1.32-.88-.899-1.32-2.332-1.32-4.298v-8.99c0-1.966.44-3.39 1.32-4.27.899-.899 2.332-1.348 4.298-1.348h5.338c1.966 0 3.389.45 4.27 1.348.899.88 1.348 2.304 1.348 4.27v8.99zm13.763-8.99c0-1.123-.562-1.685-1.686-1.685h-3.09c-1.123 0-1.685.562-1.685 1.685v8.99c0 1.124.562 1.685 1.685 1.685h3.09c1.124 0 1.686-.561 1.686-1.685v-8.99zm5.056 8.99c0 1.966-.449 3.4-1.348 4.298-.88.88-2.303 1.32-4.27 1.32h-5.337c-1.967 0-3.4-.44-4.299-1.32-.88-.899-1.32-2.332-1.32-4.298v-8.99c0-1.966.44-3.39 1.32-4.27.899-.899 2.332-1.348 4.299-1.348h5.337c1.967 0 3.39.45 4.27 1.348.899.88 1.348 2.304 1.348 4.27v8.99zM50.627 55.949c-.993 0-2.116.187-3.371.562v6.742h4.214c.749 0 1.123-.375 1.123-1.124v-5.197a.953.953 0 00-.28-.702.953.953 0 00-.703-.281h-.983zm-3.371 11.096v4.776H42.34V52.157h4.354l.281 1.404a9.775 9.775 0 012.697-1.264c.936-.28 1.723-.421 2.36-.421h1.264c1.273 0 2.294.384 3.062 1.152.768.767 1.152 1.788 1.152 3.062v6.46c0 1.405-.403 2.51-1.208 3.316-.787.786-1.883 1.18-3.287 1.18h-5.76zm16.437 5.057c-.992 0-2.21-.094-3.652-.28v-3.653h2.528c.712 0 1.17-.197 1.377-.59.225-.393.187-.946-.112-1.657l-5.76-13.765h5.198l3.511 9.55 2.95-9.55h5.197l-5.619 15.45c-.543 1.48-1.245 2.594-2.106 3.343-.862.768-2.032 1.152-3.512 1.152zm16.724-17.417c1.816-.375 3.408-.562 4.775-.562h1.264c1.274 0 2.295.384 3.062 1.152.768.768 1.152 1.788 1.152 3.062v4.495c0 1.404-.402 2.51-1.208 3.315-.786.786-1.882 1.18-3.287 1.18h-6.18c-1.404 0-2.51-.394-3.315-1.18-.786-.806-1.18-1.91-1.18-3.315v-9.973c0-1.349.45-2.482 1.349-3.4.918-.917 2.154-1.47 3.708-1.657l9.551-1.123.422 3.933-8.709.983c-.936.112-1.404.58-1.404 1.404v1.686zm4.213 8.849c.75 0 1.124-.375 1.124-1.124V58.9a.953.953 0 00-.28-.703.953.953 0 00-.703-.28h-.983c-.73 0-1.386.037-1.967.112-.58.075-1.049.131-1.404.168v4.214c0 .75.374 1.124 1.123 1.124h3.09zm9.983 3.792c-.805 0-1.742-.093-2.81-.28v-3.653h1.124c.712 0 1.087-.374 1.124-1.123l.562-10.113h13.484v14.888h-4.916V55.95h-3.933l-.421 7.163c-.075 1.274-.496 2.295-1.264 3.063-.768.767-1.751 1.151-2.95 1.151zm22.042-11.939c-.749 0-1.123.375-1.123 1.124v1.545h4.775v-1.545c0-.75-.374-1.124-1.123-1.124h-2.529zm8.007 11.377c-3.615.375-6.892.562-9.833.562-1.273 0-2.294-.384-3.062-1.151-.768-.768-1.151-1.789-1.151-3.063V56.37c0-1.404.393-2.5 1.179-3.286.806-.806 1.911-1.208 3.315-1.208h5.619c1.404 0 2.5.402 3.286 1.208.806.786 1.208 1.882 1.208 3.286v5.198h-9.691v1.123a.95.95 0 00.281.702.952.952 0 00.702.281c1.854 0 4.57-.14 8.147-.421v3.511zm8.978-16.012c-2.435 0-3.652-1.217-3.652-3.652v-.843h3.652v.703c0 .28.094.515.281.702.187.187.421.28.702.28h.843a.952.952 0 00.702-.28.95.95 0 00.281-.702v-.703h3.652v.843c0 2.435-1.217 3.652-3.652 3.652h-2.809zm3.792 1.405h5.198v14.888h-4.917V58.9l-4.775 8.146h-5.197V52.157h4.916v8.146l4.775-8.146z" fill="#fff"/><defs><linearGradient id="paint1_linear" x1="196.747" y1="85.589" x2="-27.32" y2="44.568" gradientUnits="userSpaceOnUse"><stop stop-color="#18F10A"/><stop offset=".11" stop-color="#3BA934"/><stop offset=".24" stop-color="#3BBC33"/><stop offset=".84" stop-color="#31CD27"/><stop offset="1" stop-color="#0FFF00"/></linearGradient><linearGradient id="paint2_linear" x1="264.999" y1="-20.439" x2="35.357" y2="169.404" gradientUnits="userSpaceOnUse"><stop stop-color="#33CC2A"/><stop offset=".1" stop-color="#3A8D35"/><stop offset=".24" stop-color="#3BBC33"/><stop offset=".84" stop-color="#3BBC33"/><stop offset="1" stop-color="#31D027"/></linearGradient><radialGradient id="paint0_radial" cx="0" cy="0" r="1" gradientUnits="userSpaceOnUse" gradientTransform="matrix(-58.3629 0 0 -53.3877 56.398 106.795)"><stop stop-color="#3BBC33"/><stop offset="1" stop-color="#2C7927"/></radialGradient></defs></svg>