<svg width="167" height="120" fill="none" xmlns="http://www.w3.org/2000/svg"><path d="M18.465 119.976s16.159-46.332 71.29-46.332H11.882l6.584 46.332z" fill="url(#paint0_radial)"/><path d="M150.73 0H19.508C11.713.096-2.028 3.24.252 22.883c2.227 19.195 16.995 91.246 18.127 96.758l.094.342s2.19-46.339 37.398-46.339h75.284c1.59 0 3.063 0 4.439-.038 13.029-.647 16.122-5.552 19.2-13.251 3.31-8.281 7.067-21.207 10.381-33.729C168.456 14.283 163.563.394 150.73 0z" fill="url(#paint1_linear)"/><path d="M157.687 1.854c6.539 4.69 8.623 14.74 6.201 23.943-3.314 12.52-7.071 25.447-10.381 33.728-3.082 7.699-6.171 12.604-19.2 13.252-1.376.027-2.849.037-4.439.037H54.569c-29.127 0-35.662 31.71-37.05 42.665.428 2.105.724 3.548.852 4.161l.093.343s2.198-46.34 37.406-46.34h75.284c1.59 0 3.063 0 4.439-.037 13.029-.648 16.122-5.553 19.2-13.251 3.31-8.282 7.067-21.208 10.381-33.729 2.602-9.783.068-20.542-7.487-24.772z" fill="url(#paint2_linear)"/><path d="M42.573 12.595c2.138 0 4.713.156 7.725.468v3.16a692.44 692.44 0 00-2.2-.116 39.616 39.616 0 00-1.475-.094l-1.124-.094a34.877 34.877 0 00-1.732-.046c-.952 0-1.428.39-1.428 1.17v2.107c1.514-.312 2.84-.468 3.98-.468h1.638c1.061 0 1.912.32 2.552.96.64.64.96 1.49.96 2.551v3.044c0 1.42-.36 2.481-1.077 3.183-.718.687-1.842 1.03-3.371 1.03h-4.448c-1.53 0-2.653-.343-3.371-1.03-.718-.702-1.077-1.763-1.077-3.183v-8.194c0-1.53.359-2.653 1.077-3.371s1.841-1.077 3.37-1.077zm2.575 9.364c-.593 0-1.14.031-1.639.094-.484.062-.874.11-1.17.14v2.575c0 .937.468 1.405 1.404 1.405h2.107c.937 0 1.405-.468 1.405-1.405v-1.99a.794.794 0 00-.234-.585.794.794 0 00-.586-.234h-1.287zm19.896-3.98c0 1.327-.562 2.474-1.686 3.442a17.67 17.67 0 01-1.123.89L57.2 25.938h7.843v3.277H52.402v-4.448l8.428-6.086v-1.17c0-.937-.468-1.405-1.405-1.405H52.87v-3.278h7.492c1.638 0 2.825.375 3.558 1.124.75.734 1.124 1.92 1.124 3.558v.469zm1.4 7.726h4.214v3.511h-4.213v-3.511zm15.457-8.428c0-.936-.468-1.404-1.405-1.404h-2.575c-.936 0-1.405.468-1.405 1.404v7.491c0 .937.469 1.405 1.405 1.405h2.575c.937 0 1.405-.468 1.405-1.405v-7.49zm4.214 7.491c0 1.64-.375 2.833-1.124 3.582-.734.734-1.92 1.1-3.558 1.1h-4.448c-1.64 0-2.833-.366-3.582-1.1-.734-.749-1.1-1.943-1.1-3.582v-7.49c0-1.64.366-2.826 1.1-3.56.749-.748 1.943-1.123 3.582-1.123h4.448c1.638 0 2.824.375 3.558 1.124.749.733 1.124 1.92 1.124 3.558v7.491zm11.469-7.49c0-.937-.469-1.405-1.405-1.405h-2.575c-.936 0-1.405.468-1.405 1.404v7.491c0 .937.469 1.405 1.405 1.405h2.575c.936 0 1.405-.468 1.405-1.405v-7.49zm4.213 7.49c0 1.64-.374 2.833-1.123 3.582-.734.734-1.92 1.1-3.559 1.1h-4.447c-1.64 0-2.833-.366-3.582-1.1-.734-.749-1.1-1.943-1.1-3.582v-7.49c0-1.64.366-2.826 1.1-3.56.749-.748 1.943-1.123 3.582-1.123h4.447c1.64 0 2.825.375 3.559 1.124.749.733 1.123 1.92 1.123 3.558v7.491zm11.47-7.49c0-.937-.469-1.405-1.405-1.405h-2.575c-.937 0-1.405.468-1.405 1.404v7.491c0 .937.468 1.405 1.405 1.405h2.575c.936 0 1.405-.468 1.405-1.405v-7.49zm4.213 7.49c0 1.64-.374 2.833-1.123 3.582-.734.734-1.92 1.1-3.559 1.1h-4.448c-1.638 0-2.832-.366-3.581-1.1-.734-.749-1.101-1.943-1.101-3.582v-7.49c0-1.64.367-2.826 1.101-3.56.749-.748 1.943-1.123 3.581-1.123h4.448c1.639 0 2.825.375 3.559 1.124.749.733 1.123 1.92 1.123 3.558v7.491zM42.922 48.97c-.828 0-1.764.156-2.81.468v5.619h3.512c.624 0 .936-.312.936-.936V49.79a.794.794 0 00-.234-.586.794.794 0 00-.585-.234h-.82zm-2.81 9.247v3.98h-4.096V45.809h3.628l.234 1.17a8.144 8.144 0 012.248-1.053c.78-.234 1.436-.351 1.966-.351h1.054c1.06 0 1.911.32 2.551.96.64.64.96 1.49.96 2.551v5.385c0 1.17-.335 2.091-1.006 2.762-.656.656-1.569.983-2.74.983h-4.799zM53.81 62.43c-.827 0-1.842-.078-3.043-.234v-3.043h2.107c.593 0 .975-.164 1.147-.492.187-.328.156-.788-.094-1.381l-4.799-11.471h4.33l2.927 7.96 2.458-7.96h4.331l-4.682 12.876c-.453 1.232-1.038 2.161-1.756 2.785-.718.64-1.693.96-2.926.96zm13.936-14.514c1.514-.312 2.84-.468 3.98-.468h1.053c1.062 0 1.912.32 2.552.96.64.64.96 1.49.96 2.551v3.746c0 1.17-.335 2.091-1.007 2.762-.655.656-1.568.983-2.739.983h-5.15c-1.17 0-2.091-.327-2.762-.983-.656-.67-.983-1.592-.983-2.762v-8.31c0-1.124.374-2.069 1.123-2.833.765-.765 1.795-1.225 3.09-1.382l7.96-.936.35 3.277-7.256.82c-.78.093-1.17.484-1.17 1.17v1.405zm3.512 7.374c.624 0 .936-.312.936-.936v-2.927a.794.794 0 00-.234-.585.794.794 0 00-.585-.234h-.82c-.608 0-1.154.031-1.638.094-.484.062-.874.109-1.17.14v3.512c0 .624.311.936.936.936h2.575zm8.319 3.16c-.671 0-1.452-.078-2.341-.234v-3.043h.936c.593 0 .905-.312.936-.936l.469-8.428h11.237v12.407h-4.097V48.97h-3.278l-.35 5.97c-.063 1.061-.414 1.912-1.054 2.552-.64.64-1.46.96-2.458.96zm18.368-9.949c-.624 0-.936.312-.936.937v1.287h3.98v-1.288c0-.624-.313-.936-.937-.936h-2.107zm6.672 9.481c-3.012.312-5.743.468-8.193.468-1.062 0-1.912-.32-2.552-.96-.64-.64-.96-1.49-.96-2.551V49.32c0-1.171.328-2.084.983-2.74.671-.67 1.592-1.006 2.763-1.006h4.682c1.17 0 2.083.335 2.739 1.006.671.656 1.006 1.569 1.006 2.74v4.33h-8.076v.937c0 .234.078.429.234.585a.794.794 0 00.585.234c1.545 0 3.808-.117 6.789-.351v2.926zm7.482-13.343c-2.029 0-3.043-1.015-3.043-3.044v-.702h3.043v.585c0 .234.078.43.234.585a.794.794 0 00.586.234h.702a.794.794 0 00.585-.234.794.794 0 00.234-.585v-.585h3.044v.702c0 2.029-1.015 3.044-3.044 3.044h-2.341zm3.161 1.17h4.33v12.407h-4.096v-6.789l-3.98 6.79h-4.331V45.808h4.097v6.789l3.98-6.789z" fill="#fff"/><defs><linearGradient id="paint1_linear" x1="166.757" y1="72.503" x2="-23.149" y2="37.717" gradientUnits="userSpaceOnUse"><stop stop-color="#18F10A"/><stop offset=".11" stop-color="#3BA934"/><stop offset=".24" stop-color="#3BBC33"/><stop offset=".84" stop-color="#31CD27"/><stop offset="1" stop-color="#0FFF00"/></linearGradient><linearGradient id="paint2_linear" x1="224.607" y1="-17.314" x2="30.055" y2="143.609" gradientUnits="userSpaceOnUse"><stop stop-color="#33CC2A"/><stop offset=".1" stop-color="#3A8D35"/><stop offset=".24" stop-color="#3BBC33"/><stop offset=".84" stop-color="#3BBC33"/><stop offset="1" stop-color="#31D027"/></linearGradient><radialGradient id="paint0_radial" cx="0" cy="0" r="1" gradientUnits="userSpaceOnUse" gradientTransform="matrix(-49.4669 0 0 -45.2251 47.802 90.467)"><stop stop-color="#3BBC33"/><stop offset="1" stop-color="#2C7927"/></radialGradient></defs></svg>