<svg width="170" height="123" fill="none" xmlns="http://www.w3.org/2000/svg"><path d="M18.816 122.317s16.467-47.236 72.65-47.236h-79.36l6.71 47.236z" fill="url(#paint0_radial)"/><path d="M153.605 0H19.88C11.937.098-2.066 3.302.257 23.33c2.27 19.57 17.319 93.026 18.473 98.645l.095.349s2.232-47.243 38.112-47.243h76.72c1.62 0 3.121 0 4.523-.038 13.277-.66 16.429-5.662 19.566-13.51 3.374-8.443 7.202-21.621 10.58-34.387C171.669 14.562 166.683.402 153.605 0z" fill="url(#paint1_linear)"/><path d="M160.694 1.89c6.663 4.781 8.788 15.027 6.319 24.41-3.377 12.766-7.205 25.944-10.579 34.387-3.141 7.849-6.289 12.85-19.566 13.51-1.402.028-2.904.038-4.524.038H55.609c-29.683 0-36.343 32.329-37.756 43.498.435 2.145.737 3.617.867 4.242l.096.35s2.239-47.244 38.119-47.244h76.72c1.62 0 3.121 0 4.523-.038 13.277-.66 16.43-5.662 19.566-13.51 3.374-8.443 7.202-21.621 10.58-34.387 2.651-9.974.069-20.943-7.63-25.255z" fill="url(#paint2_linear)"/><path d="M43.751 28.758h-9.528v-3.605l6.18-10.815h5.15l-6.18 10.815h4.378V21.29h4.635v3.863h1.803v3.605h-1.803v3.605h-4.635v-3.605zM60.5 32.621c-2.867 0-6.043-.172-9.528-.515v-3.477c3.795.258 6.627.387 8.498.387.395 0 .704-.112.927-.335.24-.24.36-.558.36-.953V26.44c0-1.03-.514-1.545-1.544-1.545h-7.468V14.338h12.36v3.605H56.38v3.347h4.12c1.683 0 2.919.387 3.709 1.16.79.755 1.184 1.913 1.184 3.476v1.802c0 1.682-.395 2.918-1.184 3.708-.79.79-2.026 1.185-3.709 1.185zm6.17-4.12h4.636v3.862H66.67v-3.862zm17.002-9.27c0-1.03-.515-1.546-1.545-1.546h-2.832c-1.03 0-1.545.515-1.545 1.545v8.24c0 1.03.515 1.546 1.545 1.546h2.832c1.03 0 1.545-.515 1.545-1.545v-8.24zm4.635 8.24c0 1.802-.412 3.116-1.236 3.94-.806.806-2.111 1.21-3.914 1.21h-4.892c-1.803 0-3.116-.404-3.94-1.21-.807-.825-1.21-2.138-1.21-3.94v-8.24c0-1.803.403-3.108 1.21-3.915.824-.824 2.137-1.236 3.94-1.236h4.892c1.803 0 3.108.412 3.914 1.236.825.807 1.237 2.112 1.237 3.914v8.24zm12.617-8.24c0-1.03-.515-1.546-1.546-1.546h-2.832c-1.03 0-1.545.515-1.545 1.545v8.24c0 1.03.515 1.546 1.545 1.546h2.832c1.031 0 1.546-.515 1.546-1.545v-8.24zm4.635 8.24c0 1.802-.412 3.116-1.236 3.94-.807.806-2.112 1.21-3.914 1.21h-4.893c-1.803 0-3.116-.404-3.94-1.21-.807-.825-1.21-2.138-1.21-3.94v-8.24c0-1.803.403-3.108 1.21-3.915.824-.824 2.137-1.236 3.94-1.236h4.893c1.802 0 3.107.412 3.914 1.236.824.807 1.236 2.112 1.236 3.914v8.24zm12.616-8.24c0-1.03-.515-1.546-1.545-1.546h-2.833c-1.03 0-1.545.515-1.545 1.545v8.24c0 1.03.515 1.546 1.545 1.546h2.833c1.03 0 1.545-.515 1.545-1.545v-8.24zm4.635 8.24c0 1.802-.412 3.116-1.236 3.94-.807.806-2.112 1.21-3.914 1.21h-4.893c-1.803 0-3.116-.404-3.94-1.21-.807-.825-1.21-2.138-1.21-3.94v-8.24c0-1.803.403-3.108 1.21-3.915.824-.824 2.137-1.236 3.94-1.236h4.893c1.802 0 3.107.412 3.914 1.236.824.807 1.236 2.112 1.236 3.914v8.24zM40.405 51.19c-.91 0-1.94.172-3.09.516v6.18h3.862c.687 0 1.03-.343 1.03-1.03v-4.764a.873.873 0 00-.257-.644.874.874 0 00-.644-.257h-.901zm-3.09 10.172v4.378h-4.507V47.715h3.991l.258 1.288a8.957 8.957 0 012.472-1.159c.858-.258 1.58-.386 2.163-.386h1.159c1.167 0 2.103.352 2.807 1.056.704.703 1.056 1.639 1.056 2.806v5.923c0 1.288-.37 2.3-1.108 3.039-.72.72-1.725 1.081-3.013 1.081h-5.279zM52.381 66c-.91 0-2.026-.086-3.348-.258v-3.348h2.318c.652 0 1.073-.18 1.262-.54.206-.361.171-.867-.103-1.52l-5.28-12.618h4.764l3.22 8.756 2.703-8.756h4.764l-5.15 14.163c-.498 1.356-1.142 2.378-1.931 3.065-.79.704-1.863 1.056-3.22 1.056zm15.33-15.966c1.665-.343 3.124-.515 4.377-.515h1.16c1.167 0 2.102.352 2.806 1.056.704.704 1.056 1.64 1.056 2.806v4.12c0 1.288-.37 2.301-1.107 3.04-.722.72-1.726 1.08-3.013 1.08h-5.665c-1.288 0-2.301-.36-3.04-1.08-.72-.739-1.08-1.752-1.08-3.04V48.36c0-1.236.411-2.275 1.235-3.116.842-.841 1.975-1.348 3.4-1.52l8.755-1.03.386 3.606-7.981.9c-.858.103-1.287.532-1.287 1.288v1.545zm3.862 8.111c.687 0 1.03-.343 1.03-1.03v-3.218a.873.873 0 00-.257-.644.873.873 0 00-.644-.258h-.901c-.67 0-1.27.035-1.803.103-.532.069-.961.12-1.287.155v3.862c0 .687.343 1.03 1.03 1.03h2.832zm9.151 3.477c-.738 0-1.596-.086-2.575-.258v-3.347h1.03c.652 0 .996-.344 1.03-1.03l.515-9.27h12.36v13.647H88.58V51.192h-3.605l-.386 6.566c-.069 1.167-.455 2.103-1.16 2.807-.703.704-1.604 1.056-2.703 1.056zm20.206-10.944c-.687 0-1.03.343-1.03 1.03v1.416h4.377v-1.416c0-.687-.343-1.03-1.03-1.03h-2.317zm7.339 10.429c-3.314.343-6.318.515-9.013.515-1.168 0-2.103-.352-2.807-1.056-.704-.704-1.056-1.64-1.056-2.807v-6.18c0-1.288.36-2.292 1.082-3.013.738-.738 1.75-1.107 3.038-1.107h5.15c1.288 0 2.292.369 3.013 1.107.739.721 1.108 1.725 1.108 3.013v4.764H99.9v1.03c0 .257.086.472.258.644a.874.874 0 00.644.257c1.699 0 4.189-.129 7.468-.386v3.219zm8.23-14.678c-2.232 0-3.348-1.116-3.348-3.348v-.773h3.348v.644a.876.876 0 00.901.902h.773a.876.876 0 00.901-.902v-.644h3.348v.773c0 2.232-1.116 3.348-3.348 3.348H116.5zm3.476 1.287h4.764v13.648h-4.506v-7.468l-4.378 7.468h-4.764V47.715h4.507v7.468l4.377-7.468z" fill="#fff"/><defs><linearGradient id="paint1_linear" x1="169.938" y1="73.918" x2="-23.596" y2="38.483" gradientUnits="userSpaceOnUse"><stop stop-color="#18F10A"/><stop offset=".11" stop-color="#3BA934"/><stop offset=".24" stop-color="#3BBC33"/><stop offset=".84" stop-color="#31CD27"/><stop offset="1" stop-color="#0FFF00"/></linearGradient><linearGradient id="paint2_linear" x1="228.89" y1="-17.651" x2="30.558" y2="146.328" gradientUnits="userSpaceOnUse"><stop stop-color="#33CC2A"/><stop offset=".1" stop-color="#3A8D35"/><stop offset=".24" stop-color="#3BBC33"/><stop offset=".84" stop-color="#3BBC33"/><stop offset="1" stop-color="#31D027"/></linearGradient><radialGradient id="paint0_radial" cx="0" cy="0" r="1" gradientUnits="userSpaceOnUse" gradientTransform="matrix(-50.4104 0 0 -46.1076 48.713 92.233)"><stop stop-color="#3BBC33"/><stop offset="1" stop-color="#2C7927"/></radialGradient></defs></svg>