<svg width="236" height="145" fill="none" xmlns="http://www.w3.org/2000/svg"><path d="M32.14 144.497s21.648-55.802 95.502-55.802H23.322l8.819 55.802z" fill="url(#paint0_radial)"/><path d="M218.643 2.233c8.759 5.648 11.552 17.752 8.307 28.836-4.439 15.08-9.472 30.648-13.907 40.622-4.128 9.272-8.267 15.18-25.72 15.96-1.843.033-3.817.045-5.946.045H80.507c-39.02 0-47.774 38.19-49.632 51.384.572 2.535.97 4.273 1.14 5.012l.126.413s2.943-55.81 50.108-55.81H183.1c2.129 0 4.103 0 5.946-.045 17.453-.78 21.597-6.688 25.72-15.96 4.435-9.974 9.467-25.542 13.907-40.622 3.486-11.782.091-24.74-10.03-29.835z" fill="url(#paint1_linear)"/><path d="M209.323 0H33.537C23.096.116 4.69 3.901 7.742 27.56c2.984 23.118 22.767 109.894 24.284 116.532l.125.413s2.933-55.81 50.099-55.81H183.1c2.13 0 4.104 0 5.947-.045 17.453-.78 21.596-6.688 25.72-15.96 4.435-9.974 9.467-25.541 13.907-40.622C233.069 17.202 226.514.475 209.323 0z" fill="url(#paint2_linear)"/><path d="M34.358 38h-5.04V22.32h-5.88V18.4h16.8v3.92h-5.88V38zm13.303-11.62c-.746 0-1.12.373-1.12 1.12v1.54h4.76V27.5c0-.747-.373-1.12-1.12-1.12h-2.52zm7.98 11.34c-3.602.373-6.869.56-9.8.56-1.269 0-2.286-.383-3.052-1.148-.765-.765-1.148-1.783-1.148-3.052v-6.72c0-1.4.392-2.492 1.177-3.276.802-.803 1.904-1.204 3.303-1.204h5.6c1.4 0 2.493.401 3.277 1.204.802.784 1.204 1.876 1.204 3.276v5.18h-9.66v1.12c0 .28.093.513.28.7a.95.95 0 00.7.28c1.848 0 4.554-.14 8.12-.42v3.5zm14.41-2.24h-3.64l-2.8-5.04V38h-4.9V23.16h5.18L68.23 31l4.34-7.84h5.18V38h-4.9v-7.56l-2.8 5.04zm25.347-12.32V38h-4.9V26.94h-5.04V38h-4.9V23.16h14.84zm8.537 3.22c-.747 0-1.12.373-1.12 1.12v1.54h4.76V27.5c0-.747-.373-1.12-1.12-1.12h-2.52zm7.98 11.34c-3.603.373-6.869.56-9.8.56-1.269 0-2.287-.383-3.052-1.148-.765-.765-1.148-1.783-1.148-3.052v-6.72c0-1.4.392-2.492 1.176-3.276.803-.803 1.904-1.204 3.304-1.204h5.6c1.4 0 2.492.401 3.276 1.204.803.784 1.204 1.876 1.204 3.276v5.18h-9.66v1.12c0 .28.093.513.28.7a.95.95 0 00.7.28c1.848 0 4.555-.14 8.12-.42v3.5zm11.329-10.78c-.989 0-2.109.187-3.36.56v6.72h4.2c.747 0 1.12-.373 1.12-1.12v-5.18a.948.948 0 00-.28-.7.95.95 0 00-.7-.28h-.98zM119.884 38v4.76h-4.9v-19.6h4.34l.28 1.4a9.73 9.73 0 012.688-1.26c.933-.28 1.717-.42 2.352-.42h1.26c1.269 0 2.287.383 3.052 1.148.765.765 1.148 1.783 1.148 3.052v6.44c0 1.4-.401 2.501-1.204 3.304-.784.784-1.876 1.176-3.276 1.176h-5.74zm18.617-3.64c.989 0 2.109-.187 3.36-.56v-1.68h-4.06a.949.949 0 00-.7.28.948.948 0 00-.28.7v.28c0 .28.093.513.28.7.186.187.42.28.7.28h.7zm-5.18-10.92c3.416-.373 6.496-.56 9.24-.56 1.269 0 2.286.383 3.052 1.148.765.765 1.148 1.783 1.148 3.052V38h-4.34l-.28-1.4a10.315 10.315 0 01-2.716 1.288c-.915.261-1.69.392-2.324.392h-.98c-1.27 0-2.287-.383-3.052-1.148-.766-.765-1.148-1.783-1.148-3.052v-1.26c0-1.27.382-2.287 1.148-3.052.765-.765 1.782-1.148 3.052-1.148h5.74V27.5a.952.952 0 00-.28-.7.95.95 0 00-.7-.28c-1.214 0-2.558.056-4.032.168a257.58 257.58 0 01-3.528.252v-3.5zm24.352 3.5V38h-4.9V26.94h-4.62v-3.78h14.14v3.78h-4.62zm10.231 16.1c-.989 0-2.203-.093-3.64-.28v-3.64h2.52c.709 0 1.167-.196 1.372-.588.224-.392.187-.943-.112-1.652l-5.74-13.72h5.18l3.5 9.52 2.94-9.52h5.18l-5.6 15.4c-.541 1.475-1.241 2.585-2.1 3.332-.859.765-2.025 1.148-3.5 1.148zm20.309-16.1c-.99 0-2.11.187-3.36.56v6.72h4.2c.746 0 1.12-.373 1.12-1.12v-5.18a.952.952 0 00-.28-.7.95.95 0 00-.7-.28h-.98zM184.853 38v4.76h-4.9v-19.6h4.34l.28 1.4a9.73 9.73 0 012.688-1.26c.933-.28 1.717-.42 2.352-.42h1.26c1.269 0 2.286.383 3.052 1.148.765.765 1.148 1.783 1.148 3.052v6.44c0 1.4-.402 2.501-1.204 3.304-.784.784-1.876 1.176-3.276 1.176h-5.74zm18.616-3.64c.99 0 2.11-.187 3.36-.56v-1.68h-4.06a.95.95 0 00-.7.28.952.952 0 00-.28.7v.28c0 .28.094.513.28.7a.95.95 0 00.7.28h.7zm-5.18-10.92c3.416-.373 6.496-.56 9.24-.56 1.27 0 2.287.383 3.052 1.148.766.765 1.148 1.783 1.148 3.052V38h-4.34l-.28-1.4a10.285 10.285 0 01-2.716 1.288c-.914.261-1.689.392-2.324.392h-.98c-1.269 0-2.286-.383-3.052-1.148-.765-.765-1.148-1.783-1.148-3.052v-1.26c0-1.27.383-2.287 1.148-3.052.766-.765 1.783-1.148 3.052-1.148h5.74V27.5a.948.948 0 00-.28-.7.949.949 0 00-.7-.28c-1.213 0-2.557.056-4.032.168a257.58 257.58 0 01-3.528.252v-3.5zM55.433 68h-10.64V53.16h9.8c1.25 0 2.258.373 3.024 1.12.784.728 1.176 1.55 1.176 2.464 0 .915-.196 1.661-.588 2.24-.392.579-.943.97-1.652 1.176.84.15 1.558.56 2.156 1.232.616.672.924 1.568.924 2.688s-.392 2.053-1.176 2.8c-.766.747-1.774 1.12-3.024 1.12zm-.7-4.76a.95.95 0 00-.28-.7.95.95 0 00-.7-.28h-4.06v2.38h4.06a.95.95 0 00.7-.28.95.95 0 00.28-.7v-.42zm-.84-5.74a.95.95 0 00-.28-.7.95.95 0 00-.7-.28h-3.22v2.52h3.22a.95.95 0 00.7-.28.95.95 0 00.28-.7v-.56zM76.556 61c-.093 1.307-.466 2.38-1.12 3.22h4.9v-7.28h-3.5l-.28 4.06zm8.68-7.84v11.06h2.1v7.14h-4.648l-.28-3.36h-8.624l-.28 3.36h-4.648v-7.14h1.82c.747-.877 1.167-1.857 1.26-2.94l.56-8.12h12.74zm19.192 10.64c0 1.4-.401 2.501-1.204 3.304-.784.784-1.876 1.176-3.276 1.176h-6.44c-1.4 0-2.501-.392-3.304-1.176-.784-.803-1.176-1.904-1.176-3.304v-6.44c0-1.4.392-2.492 1.176-3.276.803-.803 1.904-1.204 3.304-1.204h6.44c1.4 0 2.492.401 3.276 1.204.803.784 1.204 1.876 1.204 3.276v6.44zm-4.9-6.02c0-.747-.373-1.12-1.12-1.12h-3.36c-.746 0-1.12.373-1.12 1.12v5.6c0 .747.374 1.12 1.12 1.12h3.36c.747 0 1.12-.373 1.12-1.12v-5.6zm18.757 7.7h-3.64l-2.8-5.04V68h-4.9V53.16h5.18l4.34 7.84 4.34-7.84h5.18V68h-4.9v-7.56l-2.8 5.04zm16.248-9.1c-.747 0-1.12.373-1.12 1.12v1.54h4.76V57.5c0-.747-.374-1.12-1.12-1.12h-2.52zm7.98 11.34c-3.603.373-6.87.56-9.8.56-1.27 0-2.287-.383-3.052-1.148-.766-.765-1.148-1.783-1.148-3.052v-6.72c0-1.4.392-2.492 1.176-3.276.802-.803 1.904-1.204 3.304-1.204h5.6c1.4 0 2.492.401 3.276 1.204.802.784 1.204 1.876 1.204 3.276v5.18h-9.66v1.12c0 .28.093.513.28.7.186.187.42.28.7.28 1.848 0 4.554-.14 8.12-.42v3.5zm19.583-11.48h4.76v3.92h-4.76v4.76h-3.92v-4.76h-4.76v-3.92h4.76v-4.76h3.92v4.76zm21.281-1.68c0 1.587-.672 2.959-2.016 4.116-.41.355-.858.71-1.344 1.064l-6.02 4.34h9.38V68h-15.12v-5.32l10.08-7.28V54c0-1.12-.56-1.68-1.68-1.68h-7.84V48.4h8.96c1.96 0 3.379.448 4.256 1.344.896.877 1.344 2.296 1.344 4.256v.56zm11.756 13.72c-3.117 0-6.571-.187-10.36-.56v-3.78c4.125.28 7.205.42 9.24.42.429 0 .765-.121 1.008-.364.261-.261.392-.607.392-1.036v-1.4c0-1.12-.56-1.68-1.68-1.68h-8.12V48.4h13.44v3.92h-8.4v3.64h4.48c1.829 0 3.173.42 4.032 1.26.859.821 1.288 2.081 1.288 3.78v1.96c0 1.83-.429 3.173-1.288 4.032s-2.203 1.288-4.032 1.288z" fill="#fff"/><defs><linearGradient id="paint1_linear" x1="308.289" y1="-20.852" x2="70.57" y2="197.853" gradientUnits="userSpaceOnUse"><stop stop-color="#33CC2A"/><stop offset=".1" stop-color="#3A8D35"/><stop offset=".24" stop-color="#3BBC33"/><stop offset=".84" stop-color="#3BBC33"/><stop offset="1" stop-color="#31D027"/></linearGradient><linearGradient id="paint2_linear" x1="230.793" y1="87.32" x2="-21.662" y2="35.886" gradientUnits="userSpaceOnUse"><stop stop-color="#18F10A"/><stop offset=".11" stop-color="#3BA934"/><stop offset=".24" stop-color="#3BBC33"/><stop offset=".84" stop-color="#31CD27"/><stop offset="1" stop-color="#0FFF00"/></linearGradient><radialGradient id="paint0_radial" cx="0" cy="0" r="1" gradientUnits="userSpaceOnUse" gradientTransform="matrix(-66.2659 0 0 -54.468 71.441 108.957)"><stop stop-color="#3BBC33"/><stop offset="1" stop-color="#2C7927"/></radialGradient></defs></svg>