<svg width="71" height="71" fill="none" xmlns="http://www.w3.org/2000/svg"><circle cx="35.468" cy="35.83" r="34.324" fill="#fff" stroke="#8BC34A" stroke-width="1.352"/><path d="M58 39v-5l-7-2.5c-.5-1-.5-1.5-1-2.5l3-6.5-3.5-3.5-6.5 3c-1-.5-1.5-.5-2.5-1L38 14h-5l-2.5 7c-1 .5-1.5.5-2.5 1l-6.5-3-3.5 3.5 3 6.5c-.5 1-.5 1.5-1 2.5L13 34v5l7 2.5c.5 1 .5 1.5 1 2.5l-3 6.5 3.5 3.5 6.5-3c1 .5 1.5 1 2.5 1l2.5 7h5l2.5-7c1-.5 1.5-.5 2.5-1l6.5 3 3.5-3.5-3-6.5c.5-1 1-1.5 1-2.5l7-2.5zm-22.5 5c-4 0-7.5-3.5-7.5-7.5s3.5-7.5 7.5-7.5 7.5 3.5 7.5 7.5-3.5 7.5-7.5 7.5z" fill="#3FAF38"/></svg>