<svg width="26" height="27" fill="none" xmlns="http://www.w3.org/2000/svg"><path d="M16.862 0H9.12C2.057 0 .382 1.757.382 9.169v8.122c0 7.412 1.675 9.169 8.739 9.169h7.74c7.065 0 8.74-1.757 8.74-9.17V9.17C25.6 1.757 23.91 0 16.86 0zm3.879 18.875h-1.83c-.694 0-.908-.577-2.155-1.903-1.084-1.103-1.564-1.249-1.831-1.249-.378 0-.485.112-.485.655v1.735c0 .466-.14.745-1.313.745-1.942 0-4.097-1.232-5.608-3.527-2.278-3.363-2.901-5.883-2.901-6.404 0-.28.106-.542.62-.542h1.834c.464 0 .64.224.821.745.907 2.747 2.418 5.154 3.041 5.154.23 0 .337-.111.337-.727v-2.838c-.07-1.309-.727-1.421-.727-1.886a.45.45 0 01.46-.448h2.885c.39 0 .533.224.533.706v3.828c0 .414.177.56.283.56.23 0 .427-.146.854-.594 1.317-1.55 2.261-3.941 2.261-3.941.123-.28.337-.543.8-.543h1.835c.55 0 .674.297.55.71-.23 1.12-2.475 4.445-2.475 4.445-.193.336-.267.482 0 .857.197.28.838.861 1.264 1.382.784.934 1.387 1.718 1.548 2.26.18.539-.086.82-.604.82h.003z" fill="#1B6798"/></svg>